<svg viewBox="0 0 47 47" xmlns="http://www.w3.org/2000/svg">
<g clip-path="url(#clip0_195_8497)">
<path d="M23.5001 43.0833C12.6842 43.0833 3.91675 34.3159 3.91675 23.5C3.91675 12.6841 12.6842 3.91666 23.5001 3.91666C34.316 3.91666 43.0834 12.6841 43.0834 23.5C43.0834 34.3159 34.316 43.0833 23.5001 43.0833ZM23.5001 39.1667C27.6551 39.1667 31.64 37.5161 34.5781 34.578C37.5162 31.6399 39.1667 27.655 39.1667 23.5C39.1667 19.3449 37.5162 15.3601 34.5781 12.422C31.64 9.48391 27.6551 7.83332 23.5001 7.83332C19.345 7.83332 15.3601 9.48391 12.4221 12.422C9.48401 15.3601 7.83341 19.3449 7.83341 23.5C7.83341 27.655 9.48401 31.6399 12.4221 34.578C15.3601 37.5161 19.345 39.1667 23.5001 39.1667ZM13.7084 25.4583H17.6251C17.6251 27.0165 18.2441 28.5108 19.3458 29.6126C20.4476 30.7144 21.9419 31.3333 23.5001 31.3333C25.0582 31.3333 26.5526 30.7144 27.6543 29.6126C28.7561 28.5108 29.3751 27.0165 29.3751 25.4583H33.2917C33.2917 28.0552 32.2601 30.5458 30.4238 32.3821C28.5875 34.2184 26.097 35.25 23.5001 35.25C20.9032 35.25 18.4126 34.2184 16.5763 32.3821C14.74 30.5458 13.7084 28.0552 13.7084 25.4583ZM15.6667 21.5417C14.8877 21.5417 14.1405 21.2322 13.5896 20.6813C13.0387 20.1304 12.7292 19.3832 12.7292 18.6042C12.7292 17.8251 13.0387 17.0779 13.5896 16.527C14.1405 15.9761 14.8877 15.6667 15.6667 15.6667C16.4458 15.6667 17.193 15.9761 17.7439 16.527C18.2948 17.0779 18.6042 17.8251 18.6042 18.6042C18.6042 19.3832 18.2948 20.1304 17.7439 20.6813C17.193 21.2322 16.4458 21.5417 15.6667 21.5417ZM31.3334 21.5417C30.5543 21.5417 29.8072 21.2322 29.2563 20.6813C28.7054 20.1304 28.3959 19.3832 28.3959 18.6042C28.3959 17.8251 28.7054 17.0779 29.2563 16.527C29.8072 15.9761 30.5543 15.6667 31.3334 15.6667C32.1125 15.6667 32.8597 15.9761 33.4105 16.527C33.9614 17.0779 34.2709 17.8251 34.2709 18.6042C34.2709 19.3832 33.9614 20.1304 33.4105 20.6813C32.8597 21.2322 32.1125 21.5417 31.3334 21.5417Z"/>
</g>
<defs>
<clipPath id="clip0_195_8497">
<rect width="47" height="47" fill="white"/>
</clipPath>
</defs>
</svg>
