<svg viewBox="0 0 47 47" xmlns="http://www.w3.org/2000/svg">
<g clip-path="url(#clip0_195_8564)">
<path d="M9.79158 17.625C10.311 17.625 10.8091 17.8313 11.1763 18.1986C11.5436 18.5658 11.7499 19.0639 11.7499 19.5833C14.8267 19.5788 17.8148 20.6139 20.2295 22.5208H24.4791C27.0895 22.5208 29.4337 23.6567 31.0473 25.4583H37.2083C39.0594 25.4578 40.8727 25.982 42.438 26.9702C44.0033 27.9584 45.2565 29.3701 46.0521 31.0415C41.4206 37.1535 33.9222 41.125 25.4583 41.125C19.9945 41.125 15.3728 39.9441 11.6324 37.8781C11.4954 38.2561 11.2451 38.5828 10.9157 38.8134C10.5863 39.044 10.1937 39.1673 9.79158 39.1667H3.91659C3.3972 39.1667 2.89909 38.9603 2.53183 38.5931C2.16458 38.2258 1.95825 37.7277 1.95825 37.2083V19.5833C1.95825 19.0639 2.16458 18.5658 2.53183 18.1986C2.89909 17.8313 3.3972 17.625 3.91659 17.625H9.79158ZM11.7519 23.5L11.7499 33.3347L11.838 33.3974C15.3533 35.8649 19.9318 37.2083 25.4583 37.2083C31.3411 37.2083 36.8146 34.9445 40.8018 31.0787L41.0623 30.8183L40.8273 30.6224C39.9025 29.8982 38.7816 29.4684 37.6097 29.3887L37.2083 29.375H33.0742C33.2152 30.0056 33.2916 30.6597 33.2916 31.3333V33.2917H15.6666V29.375L28.9637 29.373L28.8971 29.2203C28.5218 28.436 27.9445 27.7658 27.2245 27.2785C26.5045 26.7912 25.6678 26.5043 24.8003 26.4473L24.4791 26.4375H18.7412C17.8312 25.5067 16.7442 24.7674 15.5442 24.2629C14.3443 23.7584 13.0555 23.4991 11.7538 23.5H11.7519ZM7.83325 21.5417H5.87492V35.25H7.83325V21.5417ZM35.2499 9.79166C36.8081 9.79166 38.3024 10.4106 39.4042 11.5124C40.5059 12.6142 41.1249 14.1085 41.1249 15.6667C41.1249 17.2248 40.5059 18.7191 39.4042 19.8209C38.3024 20.9227 36.8081 21.5417 35.2499 21.5417C33.6918 21.5417 32.1974 20.9227 31.0957 19.8209C29.9939 18.7191 29.3749 17.2248 29.3749 15.6667C29.3749 14.1085 29.9939 12.6142 31.0957 11.5124C32.1974 10.4106 33.6918 9.79166 35.2499 9.79166ZM35.2499 13.7083C34.7305 13.7083 34.2324 13.9146 33.8652 14.2819C33.4979 14.6492 33.2916 15.1473 33.2916 15.6667C33.2916 16.186 33.4979 16.6841 33.8652 17.0514C34.2324 17.4187 34.7305 17.625 35.2499 17.625C35.7693 17.625 36.2674 17.4187 36.6347 17.0514C37.0019 16.6841 37.2083 16.186 37.2083 15.6667C37.2083 15.1473 37.0019 14.6492 36.6347 14.2819C36.2674 13.9146 35.7693 13.7083 35.2499 13.7083ZM21.5416 3.91666C23.0997 3.91666 24.5941 4.53563 25.6958 5.6374C26.7976 6.73918 27.4166 8.23351 27.4166 9.79166C27.4166 11.3498 26.7976 12.8441 25.6958 13.9459C24.5941 15.0477 23.0997 15.6667 21.5416 15.6667C19.9834 15.6667 18.4891 15.0477 17.3873 13.9459C16.2856 12.8441 15.6666 11.3498 15.6666 9.79166C15.6666 8.23351 16.2856 6.73918 17.3873 5.6374C18.4891 4.53563 19.9834 3.91666 21.5416 3.91666ZM21.5416 7.83332C21.0222 7.83332 20.5241 8.03965 20.1568 8.40691C19.7896 8.77416 19.5833 9.27227 19.5833 9.79166C19.5833 10.311 19.7896 10.8091 20.1568 11.1764C20.5241 11.5437 21.0222 11.75 21.5416 11.75C22.061 11.75 22.5591 11.5437 22.9263 11.1764C23.2936 10.8091 23.4999 10.311 23.4999 9.79166C23.4999 9.27227 23.2936 8.77416 22.9263 8.40691C22.5591 8.03965 22.061 7.83332 21.5416 7.83332Z"/>
</g>
<defs>
<clipPath id="clip0_195_8564">
<rect width="47" height="47" fill="white"/>
</clipPath>
</defs>
</svg>
