<svg viewBox="0 0 47 47" xmlns="http://www.w3.org/2000/svg">
<g clip-path="url(#clip0_195_8514)">
<path d="M23.5001 43.0834C12.6842 43.0834 3.91675 34.3159 3.91675 23.5C3.91675 12.6841 12.6842 3.91669 23.5001 3.91669C34.316 3.91669 43.0834 12.6841 43.0834 23.5C43.0834 34.3159 34.316 43.0834 23.5001 43.0834ZM23.5001 39.1667C27.6551 39.1667 31.64 37.5161 34.5781 34.578C37.5162 31.64 39.1667 27.6551 39.1667 23.5C39.1667 19.345 37.5162 15.3601 34.5781 12.422C31.64 9.48394 27.6551 7.83335 23.5001 7.83335C19.345 7.83335 15.3601 9.48394 12.4221 12.422C9.48401 15.3601 7.83341 19.345 7.83341 23.5C7.83341 27.6551 9.48401 31.64 12.4221 34.578C15.3601 37.5161 19.345 39.1667 23.5001 39.1667ZM19.6813 21.5417H29.3751V25.4584H19.6813C19.851 26.2913 20.2346 27.0657 20.7944 27.7054C21.3541 28.3451 22.0708 28.828 22.8739 29.1066C23.677 29.3852 24.5388 29.45 25.3745 29.2944C26.2101 29.1389 26.9909 28.7685 27.64 28.2196L30.9692 30.4384C29.8252 31.6837 28.3471 32.5737 26.7112 33.0019C25.0753 33.4302 23.3507 33.3788 21.7432 32.8538C20.1357 32.3288 18.7133 31.3523 17.6456 30.041C16.5778 28.7297 15.9099 27.1389 15.7216 25.4584H13.7084V21.5417H15.7196C15.9073 19.8603 16.5751 18.2686 17.643 16.9565C18.711 15.6444 20.1341 14.6674 21.7423 14.1423C23.3505 13.6171 25.0759 13.566 26.7124 13.995C28.3489 14.4241 29.8274 15.3151 30.9711 16.5616L27.64 18.7804C26.9909 18.2316 26.2101 17.8611 25.3745 17.7056C24.5388 17.5501 23.677 17.6148 22.8739 17.8934C22.0708 18.172 21.3541 18.655 20.7944 19.2947C20.2346 19.9343 19.851 20.7088 19.6813 21.5417Z"/>
</g>
<defs>
<clipPath id="clip0_195_8514">
<rect width="47" height="47" fill="white"/>
</clipPath>
</defs>
</svg>
