<svg viewBox="0 0 47 47" xmlns="http://www.w3.org/2000/svg">
<g clip-path="url(#clip0_195_8583)">
<path d="M9.79167 15.6667V39.1667H37.2083V15.6667H9.79167ZM9.79167 11.75H37.2083V7.83332H9.79167V11.75ZM39.1667 43.0833H7.83333C7.31395 43.0833 6.81584 42.877 6.44858 42.5097C6.08132 42.1425 5.875 41.6444 5.875 41.125V5.87499C5.875 5.35561 6.08132 4.8575 6.44858 4.49024C6.81584 4.12298 7.31395 3.91666 7.83333 3.91666H39.1667C39.6861 3.91666 40.1842 4.12298 40.5514 4.49024C40.9187 4.8575 41.125 5.35561 41.125 5.87499V41.125C41.125 41.6444 40.9187 42.1425 40.5514 42.5097C40.1842 42.877 39.6861 43.0833 39.1667 43.0833ZM13.7083 19.5833H21.5417V27.4167H13.7083V19.5833ZM13.7083 31.3333H33.2917V35.25H13.7083V31.3333ZM25.4583 21.5417H33.2917V25.4583H25.4583V21.5417Z"/>
</g>
<defs>
<clipPath id="clip0_195_8583">
<rect width="47" height="47" fill="white"/>
</clipPath>
</defs>
</svg>
