<svg viewBox="0 0 47 47" xmlns="http://www.w3.org/2000/svg">
<g clip-path="url(#clip0_195_8599)">
<path d="M7.83329 31.3334V7.83335H3.91663V3.91669H9.79163C10.311 3.91669 10.8091 4.12301 11.1764 4.49027C11.5436 4.85753 11.75 5.35564 11.75 5.87502V29.375H36.1077L40.0244 13.7084H15.6666V9.79169H42.535C42.8326 9.7917 43.1264 9.85956 43.3939 9.99014C43.6614 10.1207 43.8956 10.3106 44.0788 10.5452C44.2619 10.7799 44.3891 11.0532 44.4508 11.3445C44.5124 11.6357 44.5069 11.9371 44.4345 12.2259L39.5387 31.8092C39.4326 32.2327 39.1881 32.6086 38.8439 32.8772C38.4997 33.1458 38.0757 33.2917 37.6391 33.2917H9.79163C9.27224 33.2917 8.77413 33.0854 8.40688 32.7181C8.03962 32.3508 7.83329 31.8527 7.83329 31.3334ZM11.75 45.0417C10.7112 45.0417 9.71498 44.629 8.98046 43.8945C8.24594 43.16 7.83329 42.1638 7.83329 41.125C7.83329 40.0863 8.24594 39.09 8.98046 38.3555C9.71498 37.621 10.7112 37.2084 11.75 37.2084C12.7887 37.2084 13.7849 37.621 14.5195 38.3555C15.254 39.09 15.6666 40.0863 15.6666 41.125C15.6666 42.1638 15.254 43.16 14.5195 43.8945C13.7849 44.629 12.7887 45.0417 11.75 45.0417ZM35.25 45.0417C34.2112 45.0417 33.215 44.629 32.4805 43.8945C31.7459 43.16 31.3333 42.1638 31.3333 41.125C31.3333 40.0863 31.7459 39.09 32.4805 38.3555C33.215 37.621 34.2112 37.2084 35.25 37.2084C36.2887 37.2084 37.2849 37.621 38.0195 38.3555C38.754 39.09 39.1666 40.0863 39.1666 41.125C39.1666 42.1638 38.754 43.16 38.0195 43.8945C37.2849 44.629 36.2887 45.0417 35.25 45.0417Z"/>
</g>
<defs>
<clipPath id="clip0_195_8599">
<rect width="47" height="47" fill="white"/>
</clipPath>
</defs>
</svg>
