<svg viewBox="0 0 31 30" fill="currentColor" xmlns="http://www.w3.org/2000/svg"><path d="M15.5 3.66732C12.229 3.66732 9.09201 4.96672 6.77906 7.27967C4.46611 9.59262 3.16671 12.7296 3.16671 16.0007H7.79171C8.60946 16.0007 9.39372 16.3255 9.97195 16.9037C10.5502 17.482 10.875 18.2662 10.875 19.084V26.7923C10.875 27.6101 10.5502 28.3943 9.97195 28.9726C9.39372 29.5508 8.60946 29.8757 7.79171 29.8757H3.16671C2.34896 29.8757 1.5647 29.5508 0.986461 28.9726C0.408224 28.3943 0.083374 27.6101 0.083374 26.7923V16.0007C0.083374 7.48603 6.98542 0.583984 15.5 0.583984C24.0147 0.583984 30.9167 7.48603 30.9167 16.0007V26.7923C30.9167 27.6101 30.5919 28.3943 30.0136 28.9726C29.4354 29.5508 28.6511 29.8757 27.8334 29.8757H23.2084C22.3906 29.8757 21.6064 29.5508 21.0281 28.9726C20.4499 28.3943 20.125 27.6101 20.125 26.7923V19.084C20.125 18.2662 20.4499 17.482 21.0281 16.9037C21.6064 16.3255 22.3906 16.0007 23.2084 16.0007H27.8334C27.8334 12.7296 26.534 9.59262 24.221 7.27967C21.9081 4.96672 18.771 3.66732 15.5 3.66732V3.66732ZM3.16671 19.084V26.7923H7.79171V19.084H3.16671ZM23.2084 19.084V26.7923H27.8334V19.084H23.2084Z"/></svg>
