<svg width="29" height="29" viewBox="0 0 29 29" xmlns="http://www.w3.org/2000/svg"><path d="M14.5 2.41602C12.1101 2.41602 9.77392 3.12469 7.78682 4.45242C5.79973 5.78016 4.25098 7.66732 3.33642 9.87526C2.42186 12.0832 2.18257 14.5128 2.64881 16.8567C3.11505 19.2006 4.26587 21.3537 5.95576 23.0436C7.64564 24.7334 9.79869 25.8843 12.1426 26.3505C14.4866 26.8167 16.9161 26.5775 19.1241 25.6629C21.332 24.7483 23.2192 23.1996 24.5469 21.2125C25.8746 19.2254 26.5833 16.8892 26.5833 14.4993C26.5833 12.9125 26.2708 11.3413 25.6635 9.87526C25.0563 8.40924 24.1662 7.07718 23.0442 5.95514C21.9221 4.8331 20.5901 3.94305 19.1241 3.3358C17.658 2.72856 16.0868 2.41602 14.5 2.41602ZM14.5 24.166C12.5881 24.166 10.7191 23.5991 9.12945 22.5369C7.53978 21.4747 6.30078 19.965 5.56913 18.1986C4.83748 16.4323 4.64605 14.4886 5.01904 12.6135C5.39203 10.7383 6.31269 9.01589 7.6646 7.66398C9.01651 6.31208 10.7389 5.39142 12.6141 5.01842C14.4892 4.64543 16.4329 4.83687 18.1992 5.56851C19.9656 6.30016 21.4753 7.53916 22.5375 9.12884C23.5997 10.7185 24.1666 12.5875 24.1666 14.4993C24.1666 17.0631 23.1482 19.5219 21.3353 21.3347C19.5225 23.1476 17.0637 24.166 14.5 24.166ZM17.7745 16.0581C18.0021 16.2856 18.1299 16.5942 18.1299 16.916C18.1299 17.2378 18.0021 17.5464 17.7745 17.7739C17.547 18.0015 17.2384 18.1293 16.9166 18.1293C16.5949 18.1293 16.2862 18.0015 16.0587 17.7739L13.642 15.3573C13.5301 15.2444 13.4415 15.1105 13.3813 14.9632C13.3212 14.816 13.2907 14.6584 13.2916 14.4993V10.8743C13.2916 10.5539 13.4189 10.2465 13.6455 10.0199C13.8722 9.79332 14.1795 9.66602 14.5 9.66602C14.8204 9.66602 15.1278 9.79332 15.3544 10.0199C15.581 10.2465 15.7083 10.5539 15.7083 10.8743V14.0039L17.7745 16.0581Z"/></svg>
