<svg viewBox="0 0 24 24" fill="none" xmlns="http://www.w3.org/2000/svg">
<g>
<path d="M22 12C22 17.5228 17.5228 22 12 22C6.47715 22 2 17.5228 2 12C2 6.47715 6.47715 2 12 2C17.5228 2 22 6.47715 22 12Z" stroke="currentColor" stroke-width="1.8"/>
<path d="M13.85 10.1278C13.85 10.6248 14.2529 11.0278 14.75 11.0278C15.2471 11.0278 15.65 10.6248 15.65 10.1278H13.85ZM9.9 13.8726C9.9 13.3756 9.49706 12.9726 9 12.9726C8.50294 12.9726 8.1 13.3756 8.1 13.8726H9.9ZM12.9 7C12.9 6.50294 12.4971 6.1 12 6.1C11.5029 6.1 11.1 6.50294 11.1 7L12.9 7ZM11.1 17C11.1 17.4971 11.5029 17.9 12 17.9C12.4971 17.9 12.9 17.4971 12.9 17H11.1ZM12 10.9562C11.0574 10.9562 10.5892 10.8047 10.3757 10.6617C10.2393 10.5704 10.15 10.4522 10.15 10.1278H8.35C8.35 10.9171 8.63574 11.663 9.37432 12.1575C10.0358 12.6003 10.9426 12.7562 12 12.7562V10.9562ZM10.15 10.1278C10.15 9.9266 10.2593 9.66846 10.5876 9.42773C10.9154 9.18738 11.4118 9.01133 12 9.01133V7.21133C11.0694 7.21133 10.1908 7.48667 9.52326 7.97615C8.85627 8.46522 8.35 9.21532 8.35 10.1278H10.15ZM12 9.01133C12.5882 9.01133 13.0846 9.18738 13.4124 9.42773C13.7407 9.66846 13.85 9.9266 13.85 10.1278H15.65C15.65 9.21532 15.1437 8.46522 14.4767 7.97615C13.8092 7.48667 12.9306 7.21133 12 7.21133V9.01133ZM14.1 13.8726C14.1 14.2515 13.9525 14.4736 13.66 14.6482C13.3129 14.8554 12.7473 14.9891 12 14.9891V16.7891C12.9095 16.7891 13.8439 16.6347 14.5826 16.1938C15.3759 15.7202 15.9 14.9341 15.9 13.8726H14.1ZM12 14.9891C11.326 14.9891 10.7561 14.8039 10.3807 14.5516C9.99972 14.2954 9.9 14.0384 9.9 13.8726H8.1C8.1 14.8206 8.67185 15.5717 9.37662 16.0454C10.087 16.5229 11.0172 16.7891 12 16.7891V14.9891ZM12 12.7562C12.9498 12.7562 13.4835 12.9 13.7605 13.0795C13.9556 13.206 14.1 13.3943 14.1 13.8726H15.9C15.9 12.9107 15.5444 12.0907 14.7395 11.5691C14.0165 11.1004 13.0502 10.9562 12 10.9562V12.7562ZM12.9 8.11133L12.9 7L11.1 7L11.1 8.11133L12.9 8.11133ZM11.1 15.8891V17H12.9V15.8891H11.1Z" fill="currentColor"/>
</g>
</svg>
