<svg viewBox="0 0 19 19" xmlns="http://www.w3.org/2000/svg">
<g clip-path="url(#clip0_195_11728)">
<path d="M6.33333 3.16666H16.625V4.74999H6.33333V3.16666ZM3.5625 5.14583C3.24756 5.14583 2.94551 5.02072 2.72281 4.79802C2.50011 4.57532 2.375 4.27327 2.375 3.95833C2.375 3.64338 2.50011 3.34134 2.72281 3.11864C2.94551 2.89594 3.24756 2.77083 3.5625 2.77083C3.87744 2.77083 4.17949 2.89594 4.40219 3.11864C4.62489 3.34134 4.75 3.64338 4.75 3.95833C4.75 4.27327 4.62489 4.57532 4.40219 4.79802C4.17949 5.02072 3.87744 5.14583 3.5625 5.14583ZM3.5625 10.6875C3.24756 10.6875 2.94551 10.5624 2.72281 10.3397C2.50011 10.117 2.375 9.81494 2.375 9.5C2.375 9.18505 2.50011 8.88301 2.72281 8.66031C2.94551 8.43761 3.24756 8.3125 3.5625 8.3125C3.87744 8.3125 4.17949 8.43761 4.40219 8.66031C4.62489 8.88301 4.75 9.18505 4.75 9.5C4.75 9.81494 4.62489 10.117 4.40219 10.3397C4.17949 10.5624 3.87744 10.6875 3.5625 10.6875ZM3.5625 16.15C3.24756 16.15 2.94551 16.0249 2.72281 15.8022C2.50011 15.5795 2.375 15.2774 2.375 14.9625C2.375 14.6476 2.50011 14.3455 2.72281 14.1228C2.94551 13.9001 3.24756 13.775 3.5625 13.775C3.87744 13.775 4.17949 13.9001 4.40219 14.1228C4.62489 14.3455 4.75 14.6476 4.75 14.9625C4.75 15.2774 4.62489 15.5795 4.40219 15.8022C4.17949 16.0249 3.87744 16.15 3.5625 16.15ZM6.33333 8.70833H16.625V10.2917H6.33333V8.70833ZM6.33333 14.25H16.625V15.8333H6.33333V14.25Z" fill="currentColor"/>
</g>
<defs>
<clipPath id="clip0_195_11728">
<rect width="19" height="19" fill="white"/>
</clipPath>
</defs>
</svg>
