<svg viewBox="0 0 78 78" fill="currentColor" xmlns="http://www.w3.org/2000/svg"><g clip-path="url(#clip0_195_5754)"><path d="M68.25 61.75H74.75V68.25H3.25V61.75H9.75V13C9.75 12.138 10.0924 11.3114 10.7019 10.7019C11.3114 10.0924 12.138 9.75 13 9.75H45.5C46.362 9.75 47.1886 10.0924 47.7981 10.7019C48.4076 11.3114 48.75 12.138 48.75 13V61.75H61.75V35.75H55.25V29.25H65C65.862 29.25 66.6886 29.5924 67.2981 30.2019C67.9076 30.8114 68.25 31.638 68.25 32.5V61.75ZM16.25 16.25V61.75H42.25V16.25H16.25ZM22.75 35.75H35.75V42.25H22.75V35.75ZM22.75 22.75H35.75V29.25H22.75V22.75Z"/></g><defs><clipPath id="clip0_195_5754"><rect width="78" height="78" fill="white"/></clipPath></defs></svg>
