<svg viewBox="0 0 37 37" xmlns="http://www.w3.org/2000/svg">
<g clip-path="url(#clip0_195_4687)">
<path d="M18.5 32.2209L26.1313 24.5896C27.6404 23.0803 28.6681 21.1574 29.0844 19.0641C29.5007 16.9708 29.2869 14.801 28.4701 12.8291C27.6533 10.8573 26.2701 9.17189 24.4954 7.98614C22.7208 6.80038 20.6343 6.16749 18.5 6.16749C16.3657 6.16749 14.2792 6.80038 12.5046 7.98614C10.7299 9.17189 9.34674 10.8573 8.52991 12.8291C7.71308 14.801 7.49931 16.9708 7.91562 19.0641C8.33193 21.1574 9.35962 23.0803 10.8688 24.5896L18.5 32.2209ZM18.5 36.5807L8.68884 26.7695C6.7484 24.8291 5.42695 22.3568 4.8916 19.6653C4.35624 16.9738 4.63102 14.184 5.68119 11.6487C6.73136 9.11341 8.50976 6.94644 10.7915 5.42184C13.0732 3.89725 15.7558 3.0835 18.5 3.0835C21.2442 3.0835 23.9268 3.89725 26.2085 5.42184C28.4903 6.94644 30.2686 9.11341 31.3188 11.6487C32.369 14.184 32.6438 16.9738 32.1084 19.6653C31.5731 22.3568 30.2516 24.8291 28.3112 26.7695L18.5 36.5807ZM18.5 20.0417C19.3178 20.0417 20.102 19.7169 20.6803 19.1386C21.2585 18.5604 21.5833 17.7761 21.5833 16.9584C21.5833 16.1406 21.2585 15.3564 20.6803 14.7781C20.102 14.1999 19.3178 13.875 18.5 13.875C17.6823 13.875 16.898 14.1999 16.3198 14.7781C15.7415 15.3564 15.4167 16.1406 15.4167 16.9584C15.4167 17.7761 15.7415 18.5604 16.3198 19.1386C16.898 19.7169 17.6823 20.0417 18.5 20.0417ZM18.5 23.125C16.8645 23.125 15.296 22.4753 14.1395 21.3189C12.983 20.1624 12.3333 18.5939 12.3333 16.9584C12.3333 15.3229 12.983 13.7544 14.1395 12.5979C15.296 11.4414 16.8645 10.7917 18.5 10.7917C20.1355 10.7917 21.704 11.4414 22.8605 12.5979C24.017 13.7544 24.6667 15.3229 24.6667 16.9584C24.6667 18.5939 24.017 20.1624 22.8605 21.3189C21.704 22.4753 20.1355 23.125 18.5 23.125Z" />
</g>
<defs>
<clipPath id="clip0_195_4687">
<rect width="37" height="37" fill="white"/>
</clipPath>
</defs>
</svg>
