<svg viewBox="0 0 37 37" xmlns="http://www.w3.org/2000/svg">
<path d="M33.0995 16.4957L31.5578 13.4123C31.1797 12.6258 30.5867 11.9623 29.8474 11.4986C29.1081 11.0348 28.2526 10.7897 27.3799 10.7915H23.1249C23.1249 9.56488 22.6376 8.38849 21.7703 7.52114C20.9029 6.65378 19.7265 6.1665 18.4999 6.1665H7.70825C6.48163 6.1665 5.30524 6.65378 4.43788 7.52114C3.57053 8.38849 3.08325 9.56488 3.08325 10.7915V23.1248C3.08791 24.1163 3.41108 25.0801 4.0051 25.874C4.59911 26.6678 5.43252 27.2498 6.38242 27.534C6.67035 28.4565 7.24004 29.2657 8.01146 29.8478C8.78289 30.43 9.71728 30.7558 10.6834 30.7796C11.6495 30.8035 12.5989 30.524 13.398 29.9806C14.1972 29.4372 14.8061 28.6571 15.1391 27.7498H21.8608C22.1848 28.6427 22.7759 29.4141 23.5538 29.9593C24.3316 30.5045 25.2584 30.7969 26.2083 30.7969C27.1581 30.7969 28.0849 30.5045 28.8627 29.9593C29.6406 29.4141 30.2317 28.6427 30.5557 27.7498H30.8333C31.651 27.7498 32.4353 27.425 33.0135 26.8467C33.5917 26.2685 33.9166 25.4843 33.9166 24.6665V20.0415C33.9311 18.8113 33.6509 17.5955 33.0995 16.4957ZM6.16659 10.7915C6.16659 10.3826 6.32901 9.9905 6.61813 9.70138C6.90725 9.41226 7.29938 9.24984 7.70825 9.24984H18.4999C18.9088 9.24984 19.3009 9.41226 19.59 9.70138C19.8792 9.9905 20.0416 10.3826 20.0416 10.7915V24.6665H15.1391C14.8298 23.8113 14.2753 23.0662 13.5449 22.5245C12.8145 21.9827 11.9405 21.6684 11.0324 21.6206C10.1242 21.5729 9.22213 21.794 8.43896 22.2562C7.65578 22.7185 7.02625 23.4013 6.62909 24.2194C6.48342 24.0766 6.36753 23.9064 6.28814 23.7185C6.20875 23.5306 6.16743 23.3288 6.16659 23.1248V10.7915ZM10.7916 27.7498C10.4867 27.7498 10.1886 27.6594 9.93508 27.49C9.68156 27.3206 9.48396 27.0798 9.36727 26.7981C9.25059 26.5164 9.22006 26.2065 9.27954 25.9074C9.33903 25.6084 9.48586 25.3337 9.70146 25.118C9.91707 24.9024 10.1918 24.7556 10.4908 24.6961C10.7899 24.6366 11.0999 24.6672 11.3816 24.7839C11.6633 24.9005 11.904 25.0981 12.0734 25.3517C12.2428 25.6052 12.3333 25.9033 12.3333 26.2082C12.3333 26.617 12.1708 27.0092 11.8817 27.2983C11.5926 27.5874 11.2005 27.7498 10.7916 27.7498ZM26.2083 27.7498C25.9033 27.7498 25.6053 27.6594 25.3517 27.49C25.0982 27.3206 24.9006 27.0798 24.7839 26.7981C24.6673 26.5164 24.6367 26.2065 24.6962 25.9074C24.7557 25.6084 24.9025 25.3337 25.1181 25.118C25.3337 24.9024 25.6084 24.7556 25.9075 24.6961C26.2065 24.6366 26.5165 24.6672 26.7982 24.7839C27.0799 24.9005 27.3207 25.0981 27.4901 25.3517C27.6595 25.6052 27.7499 25.9033 27.7499 26.2082C27.7499 26.617 27.5875 27.0092 27.2984 27.2983C27.0093 27.5874 26.6171 27.7498 26.2083 27.7498ZM30.8333 24.6665H30.5557C30.2377 23.7669 29.6491 22.9876 28.8708 22.4356C28.0925 21.8836 27.1625 21.5859 26.2083 21.5832C25.0673 21.59 23.9692 22.0182 23.1249 22.7857V18.4998V13.8748H27.3799C27.6672 13.8728 27.9494 13.9512 28.1945 14.101C28.4397 14.2508 28.6381 14.4662 28.7674 14.7228L29.122 15.4319H26.2083C25.7994 15.4319 25.4072 15.5943 25.1181 15.8835C24.829 16.1726 24.6666 16.5647 24.6666 16.9736C24.6666 17.3825 24.829 17.7746 25.1181 18.0637C25.4072 18.3528 25.7994 18.5153 26.2083 18.5153H30.5712C30.7423 19.006 30.8308 19.5218 30.8333 20.0415V24.6665ZM13.8749 16.9582V13.8748C13.8749 13.466 14.0373 13.0738 14.3265 12.7847C14.6156 12.4956 15.0077 12.3332 15.4166 12.3332C15.8255 12.3332 16.2176 12.4956 16.5067 12.7847C16.7958 13.0738 16.9583 13.466 16.9583 13.8748V16.9582C16.9583 17.367 16.7958 17.7592 16.5067 18.0483C16.2176 18.3374 15.8255 18.4998 15.4166 18.4998C15.0077 18.4998 14.6156 18.3374 14.3265 18.0483C14.0373 17.7592 13.8749 17.367 13.8749 16.9582Z" />
</svg>
