<svg viewBox="0 0 22 16" xmlns="http://www.w3.org/2000/svg"><path d="M11 3.1C10.0309 3.1 9.08351 3.38738 8.27771 3.9258C7.47191 4.46422 6.84386 5.22949 6.47299 6.12485C6.10212 7.02021 6.00508 8.00543 6.19415 8.95594C6.38322 9.90645 6.8499 10.7795 7.53518 11.4648C8.22045 12.1501 9.09355 12.6168 10.0441 12.8058C10.9946 12.9949 11.9798 12.8979 12.8751 12.527C13.7705 12.1561 14.5358 11.5281 15.0742 10.7223C15.6126 9.91649 15.9 8.96913 15.9 8C15.9 6.70044 15.3838 5.45411 14.4648 4.53518C13.5459 3.61625 12.2996 3.1 11 3.1ZM11 11.1C10.3869 11.1 9.78752 10.9182 9.27773 10.5776C8.76794 10.2369 8.3706 9.75277 8.13597 9.18632C7.90134 8.61987 7.83995 7.99656 7.95957 7.39522C8.07918 6.79388 8.37443 6.24151 8.80797 5.80797C9.24151 5.37443 9.79388 5.07918 10.3952 4.95957C10.9966 4.83995 11.6199 4.90134 12.1863 5.13597C12.7528 5.3706 13.2369 5.76794 13.5776 6.27773C13.9182 6.78752 14.1 7.38688 14.1 8C14.1 8.82217 13.7734 9.61067 13.192 10.192C12.6107 10.7734 11.8222 11.1 11 11.1ZM21.69 6.72C21.2982 5.9136 20.7857 5.17172 20.17 4.52C19.0105 3.2881 17.6598 2.25144 16.17 1.45C14.5916 0.550088 12.8162 0.0521338 11 0C8.23737 0.144645 5.60028 1.19948 3.5 3C2.57943 3.72473 1.75599 4.56497 1.05 5.5C0.765277 5.89293 0.517553 6.31138 0.31 6.75C0.121136 7.14067 0.0155688 7.56635 0 8C0.0113841 8.44382 0.117056 8.88015 0.31 9.28C0.701776 10.0864 1.21435 10.8283 1.83 11.48C2.98946 12.7119 4.34016 13.7486 5.83 14.55C7.40838 15.4499 9.18385 15.9479 11 16C13.7626 15.8554 16.3997 14.8005 18.5 13C19.4363 12.2878 20.2766 11.4576 21 10.53C21.2847 10.1371 21.5324 9.71862 21.74 9.28C21.9157 8.87636 22.0043 8.4402 22 8C21.9886 7.55618 21.8829 7.11985 21.69 6.72ZM19.86 8.47C19.5536 9.07779 19.1594 9.63713 18.69 10.13C17.6977 11.1918 16.5434 12.0896 15.27 12.79C13.9675 13.5376 12.5011 13.9532 11 14C8.6965 13.8609 6.50166 12.9724 4.75 11.47C3.96957 10.8544 3.27063 10.142 2.67 9.35C2.46562 9.07428 2.28814 8.7796 2.14 8.47C2.06869 8.32176 2.02143 8.1631 2 8C2.02143 7.8369 2.06869 7.67824 2.14 7.53C2.44636 6.92221 2.8406 6.36287 3.31 5.87C4.30226 4.80817 5.45659 3.91036 6.73 3.21C8.03247 2.46236 9.49894 2.0468 11 2C13.3035 2.13914 15.4983 3.02761 17.25 4.53C18.0304 5.1456 18.7294 5.85799 19.33 6.65C19.5344 6.92572 19.7119 7.2204 19.86 7.53C19.9313 7.67824 19.9786 7.8369 20 8C19.9786 8.1631 19.9313 8.32176 19.86 8.47Z" /></svg>
