<svg xmlns="http://www.w3.org/2000/svg" x="0" y="0" viewBox="0 0 512 512" style="enable-background:new 0 0 512 512" xml:space="preserve" class="hovered-paths"><g><path d="M493.23 150.65 344.95 2.35A7.994 7.994 0 0 0 339.3 0H171.34c-39.09 0-70.89 31.81-70.89 70.9v140.31H38.23c-12.02 0-21.8 9.78-21.8 21.8v125.32c0 12.02 9.78 21.8 21.8 21.8h62.22v60.97c0 39.09 31.8 70.9 70.89 70.9h253.34c39.09 0 70.89-31.81 70.89-70.9V156.31c0-2.12-.84-4.16-2.34-5.66zM91.14 323.81a7.987 7.987 0 0 1 4.94-10.17c4.18-1.44 8.73.77 10.17 4.95 2.47 7.17 9.22 11.99 16.79 11.99 9.8 0 17.77-7.97 17.77-17.77V252.8c0-4.42 3.58-8 8-8 4.41 0 7.99 3.58 7.99 8v60.01c0 18.61-15.14 33.76-33.76 33.76-14.38 0-27.2-9.15-31.9-22.76zM479.58 441.1c0 30.28-24.63 54.91-54.9 54.91H171.34c-30.27 0-54.9-24.63-54.9-54.91v-60.97h263.39c12.02 0 21.8-9.78 21.8-21.8V233.01c0-12.02-9.78-21.8-21.8-21.8H116.44V70.9c0-30.28 24.63-54.91 54.9-54.91H331.3v124.3c0 13.24 10.76 24.01 23.98 24.01h124.3zM175.23 338.57V252.8c0-4.42 3.58-8 7.99-8h25.77c18.61 0 33.76 15.15 33.76 33.76v1.08c0 18.62-15.15 33.76-33.76 33.76h-17.78v25.17c0 4.42-3.57 8-7.99 8-4.41 0-7.99-3.58-7.99-8zm106.75-7.99h23.3c3.38 0 6.12-2.75 6.12-6.12v-16.84h-17.77c-4.42 0-7.99-3.58-7.99-7.99 0-4.42 3.57-8 7.99-8h25.77c4.41 0 7.99 3.58 7.99 8v24.83c0 12.19-9.92 22.11-22.11 22.11h-23.3c-12.19 0-22.11-9.92-22.11-22.11v-57.57c0-12.18 9.92-22.09 22.11-22.09h23.3c12.19 0 22.11 9.91 22.11 22.09 0 4.41-3.58 7.99-7.99 7.99-4.42 0-8-3.58-8-7.99 0-3.37-2.74-6.1-6.12-6.1h-23.3c-3.38 0-6.12 2.73-6.12 6.1v57.57c0 3.37 2.74 6.12 6.12 6.12zm-72.99-33.17h-17.78v-36.62h17.78c9.8 0 17.77 7.97 17.77 17.77v1.08c0 9.8-7.97 17.77-17.77 17.77z"></path></g></svg>