<svg xmlns="http://www.w3.org/2000/svg" version="1.1" xmlns:xlink="http://www.w3.org/1999/xlink" width="512" height="512" x="0" y="0" viewBox="0 0 512 512" style="enable-background:new 0 0 512 512" xml:space="preserve" class=""><g><path d="M493.23 150.65 344.95 2.35A7.994 7.994 0 0 0 339.3 0H171.34c-39.09 0-70.89 31.81-70.89 70.9v140.31H38.23c-12.02 0-21.8 9.78-21.8 21.8v125.32c0 12.02 9.78 21.8 21.8 21.8h62.22v60.97c0 39.09 31.8 70.9 70.89 70.9h253.34c39.09 0 70.89-31.81 70.89-70.9V156.31c0-2.12-.84-4.16-2.34-5.66zM86.14 256.88a7.983 7.983 0 0 1 2.74-10.96c3.78-2.28 8.69-1.05 10.97 2.73l18.91 31.5 18.92-31.5c2.27-3.78 7.18-5.01 10.96-2.73a7.983 7.983 0 0 1 2.74 10.96l-23.29 38.79 23.29 38.79c2.27 3.78 1.05 8.69-2.74 10.97-1.28.77-2.7 1.14-4.1 1.14-2.72 0-5.37-1.38-6.86-3.88l-18.92-31.49-18.91 31.49a7.988 7.988 0 0 1-6.86 3.88c-1.41 0-2.82-.37-4.11-1.14-3.79-2.28-5.01-7.19-2.74-10.97l23.3-38.79zm127.72 43.39a7.978 7.978 0 0 1-10.24 2.5 8.093 8.093 0 0 1-2.86-2.51l-15.44-22.1v60.41c0 4.42-3.58 8-8 8-4.41 0-7.99-3.58-7.99-8v-85.69c0-.21 0-.42.02-.62.07-1.15.38-2.23.89-3.19.5-.96 1.2-1.83 2.09-2.55.76-.6 1.63-1.07 2.57-1.37a8.06 8.06 0 0 1 2.96-.36c1.13.08 2.2.39 3.15.88.97.5 1.84 1.21 2.56 2.11.13.16.25.33.37.5l23.38 33.45 23.4-33.45c.12-.18.24-.35.38-.51.71-.89 1.58-1.59 2.54-2.09s2.03-.81 3.17-.89c.98-.06 1.99.05 2.96.36.94.3 1.81.77 2.56 1.38.89.71 1.59 1.58 2.09 2.54.51.96.82 2.04.89 3.18.01.21.02.42.02.63v85.69c0 4.42-3.58 8-8 8-4.41 0-7.99-3.58-7.99-8v-60.43zm111.21 30.31c4.41 0 7.99 3.58 7.99 7.99 0 4.42-3.58 8-7.99 8h-51.54c-4.41 0-7.99-3.58-7.99-8v-85.8c0-4.42 3.58-8 7.99-8 4.42 0 8 3.58 8 8v77.81zM479.58 441.1c0 30.28-24.63 54.91-54.9 54.91H171.34c-30.27 0-54.9-24.63-54.9-54.91v-60.97h263.39c12.02 0 21.8-9.78 21.8-21.8V233.01c0-12.02-9.78-21.8-21.8-21.8H116.44V70.9c0-30.28 24.63-54.91 54.9-54.91H331.3v124.3c0 13.24 10.76 24.01 23.98 24.01h124.3z" fill="#000000" opacity="1" data-original="#000000" class=""></path></g></svg>