<svg xmlns="http://www.w3.org/2000/svg" xmlns:xlink="http://www.w3.org/1999/xlink"><symbol xmlns="http://www.w3.org/2000/svg" fill="currentColor" viewBox="0 0 24 24" id="add-line"><path d="M11 11V5h2v6h6v2h-6v6h-2v-6H5v-2h6Z"/></symbol><symbol xmlns="http://www.w3.org/2000/svg" fill="none" viewBox="0 0 24 24" id="arrow-down"><path d="m12.5 18.5-.53.53.53.53.53-.53-.53-.53Zm.75 0V6h-1.5v12.5h1.5Zm4.22-6.03-5.5 5.5 1.06 1.06 5.5-5.5-1.06-1.06Zm-4.44 5.5-5.5-5.5-1.06 1.06 5.5 5.5 1.06-1.06Z" fill="currentColor"/></symbol><symbol xmlns="http://www.w3.org/2000/svg" fill="currentColor" viewBox="0 0 24 24" id="arrow-go-back-line"><path d="m5.828 7 2.536 2.535L6.95 10.95 2 6l4.95-4.95 1.414 1.415L5.828 5H13a8 8 0 1 1 0 16H4v-2h9a6 6 0 0 0 0-12H5.828Z"/></symbol><symbol xmlns="http://www.w3.org/2000/svg" fill="none" viewBox="0 0 24 24" id="arrow-left"><path d="M11.5 17 6 11.5 11.5 6M6 11.5h12.5" stroke="currentColor" stroke-width="1.5"/></symbol><symbol xmlns="http://www.w3.org/2000/svg" fill="none" viewBox="0 0 24 24" id="arrow-right"><path d="m13 6 5.5 5.5L13 17m5.5-5.5H6" stroke="currentColor" stroke-width="1.5"/></symbol><symbol xmlns="http://www.w3.org/2000/svg" fill="none" viewBox="0 0 20 21" id="arrow-right-s-line"><path fill-rule="evenodd" clip-rule="evenodd" d="M10.977 10.191 6.852 6.066 8.03 4.888l5.304 5.303-5.304 5.304-1.178-1.179 4.125-4.125Z" fill="currentColor"/></symbol><symbol xmlns="http://www.w3.org/2000/svg" viewBox="0 0 24 24" fill="none" id="arrow-up"><path d="M11.5 6v12.5m-5.5-7L11.5 6l5.5 5.5" stroke="currentColor" stroke-width="1.5"/></symbol><symbol xmlns="http://www.w3.org/2000/svg" fill="none" viewBox="0 0 24 24" id="auction-hammer-line-custom"><path fill-rule="evenodd" clip-rule="evenodd" d="m12.586 2.686 7.778 7.777-1.414 1.417-1.06-.355L15.413 14l5.657 5.658-1.414 1.413L14 15.415l-2.404 2.403.283 1.133-1.415 1.414-7.778-7.778 1.415-1.414 1.13.282 6.294-6.293-.353-1.06 1.414-1.415Zm.707 3.535-7.07 7.07 3.534 3.537 7.071-7.07-3.535-3.536Z" fill="currentColor"/></symbol><symbol xmlns="http://www.w3.org/2000/svg" fill="none" viewBox="0 0 24 24" id="auction-line"><path fill-rule="evenodd" clip-rule="evenodd" d="M14 20v2H2v-2h12ZM14.585.686l7.778 7.778L20.95 9.88l-1.06-.354-2.477 2.473 5.657 5.658-1.414 1.413L16 13.415l-2.404 2.404.283 1.132-1.415 1.414-7.778-7.778 1.415-1.414 1.13.282 6.294-6.293-.353-1.06L14.586.686Zm.707 3.535-7.07 7.07 3.534 3.537 7.071-7.07-3.535-3.537Z" fill="currentColor"/></symbol><symbol xmlns="http://www.w3.org/2000/svg" fill="none" viewBox="0 0 17 18" id="auto-bid"><circle cx="8.5" cy="9" r="7.75" stroke="#757575" style="stroke:color(display-p3 .4588 .4588 .4588);stroke-opacity:1" stroke-width="1.5"/><path d="m8.721 5.722-2.667 7.343h-1.09l3.071-8.057h.703l-.017.714Zm2.236 7.343L8.284 5.722l-.016-.714h.702l3.083 8.057h-1.096Zm-.138-2.982v.874H6.292v-.875h4.527Z" fill="#757575" style="fill:color(display-p3 .4588 .4588 .4588);fill-opacity:1"/></symbol><symbol xmlns="http://www.w3.org/2000/svg" fill="none" viewBox="0 0 24 24" id="bank-card-line"><path fill-rule="evenodd" clip-rule="evenodd" d="M3 3h18a1 1 0 0 1 1 1v16a1 1 0 0 1-1 1H3a1 1 0 0 1-1-1V4a1 1 0 0 1 1-1Zm16.999 8h-16v8h16v-8Zm0-2V5h-16v4h16Zm-6 6h4v2h-4v-2Z" fill="currentColor"/></symbol><symbol xmlns="http://www.w3.org/2000/svg" fill="none" viewBox="0 0 18 18" id="basket"><path d="m5.5 1-3 6.5m0 0H1V10h1m.5-2.5h13m0 0H17V10h-1m-.5-2.5-3-6.5M2 10l1 6.5h12l1-6.5M2 10h14" stroke="currentColor" stroke-width="1.5"/></symbol><symbol xmlns="http://www.w3.org/2000/svg" fill="none" viewBox="0 0 14 15" id="bid"><path d="M1.167 1.55h9.916v1.166H1.75v5.25H.583V2.133c0-.35.234-.583.584-.583Z" fill="#00421B"/><path d="M12.834 3.941H3.5c-.35 0-.583.234-.583.584v5.191c0 .35.233.584.583.584H7.41v3.791h1.458V10.3h3.967c.35 0 .583-.234.583-.584V4.525c0-.35-.233-.584-.583-.584Z" fill="#00421B"/></symbol><symbol xmlns="http://www.w3.org/2000/svg" fill="none" viewBox="0 0 24 24" id="bid-2-fill"><path fill-rule="evenodd" clip-rule="evenodd" d="M19 1.8H2c-.6 0-1 .4-1 1v10h2v-9h16v-2ZM6.001 5.9h16c.6 0 1 .4 1 1v8.9c0 .6-.4 1-1 1h-6.8v6.5h-2.5v-6.5h-6.7c-.6 0-1-.4-1-1V6.9c0-.6.4-1 1-1Z" fill="currentColor"/></symbol><symbol xmlns="http://www.w3.org/2000/svg" fill="none" viewBox="0 0 24 24" id="blocked-line"><path fill-rule="evenodd" clip-rule="evenodd" d="M2 21 20.385 2.615l1.414 1.414L3.414 22.414 2 21Z" fill="currentColor"/></symbol><symbol xmlns="http://www.w3.org/2000/svg" fill="none" viewBox="0 0 24 24" id="briefcase-2-line"><path fill="currentColor" d="M7 5V2a1 1 0 0 1 1-1h8a1 1 0 0 1 1 1v3h4a1 1 0 0 1 1 1v14a1 1 0 0 1-1 1H3a1 1 0 0 1-1-1V6a1 1 0 0 1 1-1h4Zm13 8H4v6h16v-6Zm0-6H4v4h3V9h2v2h6V9h2v2h3V7ZM9 3v2h6V3H9Z"/></symbol><symbol xmlns="http://www.w3.org/2000/svg" fill="none" viewBox="0 0 24 24" id="calendar"><path d="M4 11.5v9h16v-9m-16 0v-5h16v5m-16 0h16m0 3h-4m0 0h-4m4 0v-3m0 3v3m-4-3H8m4 0v3m0-3v-3m-4 3H4m4 0v-3m0 3v3m12 0h-4m0 0h-4m4 0v3m-4-3H8m4 0v3m-4-3H4m4 0v3M17 9V4M7 9V4" stroke="currentColor" stroke-width="1.5"/></symbol><symbol xmlns="http://www.w3.org/2000/svg" fill="currentColor" viewBox="0 0 24 24" id="calendar-2-line"><path d="M9 1v2h6V1h2v2h4a1 1 0 0 1 1 1v16a1 1 0 0 1-1 1H3a1 1 0 0 1-1-1V4a1 1 0 0 1 1-1h4V1h2Zm11 10H4v8h16v-8ZM8 13v2H6v-2h2Zm5 0v2h-2v-2h2Zm5 0v2h-2v-2h2ZM7 5H4v4h16V5h-3v2h-2V5H9v2H7V5Z"/></symbol><symbol xmlns="http://www.w3.org/2000/svg" viewBox="0 0 24 24" fill="none" id="calendar-checkmark-line"><path fill="currentColor" d="M9 1v2h6V1h2v2h4a1 1 0 0 1 1 1v16a1 1 0 0 1-1 1H3a1 1 0 0 1-1-1V4a1 1 0 0 1 1-1h4V1h2Zm11 7H4v11h16V8Zm-4.964 2.136 1.414 1.414-4.95 4.95-3.536-3.536L9.38 11.55l2.12 2.122 3.536-3.536Z"/></symbol><symbol xmlns="http://www.w3.org/2000/svg" fill="currentColor" viewBox="0 0 24 24" id="calendar-schedule-fill"><path d="M7 1v2H3a1 1 0 0 0-1 1v16a1 1 0 0 0 1 1h7.755A8 8 0 0 1 22 9.755V4a1 1 0 0 0-1-1h-4V1h-2v2H9V1H7Zm16 15a6 6 0 1 1-12 0 6 6 0 0 1 12 0Zm-7-4v4.414l2.293 2.293 1.414-1.414L18 15.586V12h-2Z"/></symbol><symbol xmlns="http://www.w3.org/2000/svg" fill="none" viewBox="0 0 24 24" id="calendar-schedule-line"><path d="M7 3V1h2v2h6V1h2v2h4a1 1 0 0 1 1 1v5h-2V5h-3v2h-2V5H9v2H7V5H4v14h6v2H3a1 1 0 0 1-1-1V4a1 1 0 0 1 1-1h4Zm10 9a4 4 0 1 0 0 8 4 4 0 0 0 0-8Zm-6 4a6 6 0 1 1 12 0 6 6 0 0 1-12 0Zm5-3v3.414l2.293 2.293 1.414-1.414L18 15.586V13h-2Z" fill="currentColor"/></symbol><symbol xmlns="http://www.w3.org/2000/svg" fill="none" viewBox="0 0 12 12" id="cancel"><path d="M11 1 1 11M1 1l10 10" stroke="currentColor"/></symbol><symbol xmlns="http://www.w3.org/2000/svg" fill="none" viewBox="0 0 24 24" id="cart"><path d="m5.925 6 1.168 9H20.77l1.169-9H5.925Zm0 0-.29-2H3m6.5 16a1.5 1.5 0 1 0 0-3 1.5 1.5 0 0 0 0 3ZM20 18.5a1.5 1.5 0 1 1-3 0 1.5 1.5 0 0 1 3 0Z" stroke="currentColor" stroke-width="1.5"/></symbol><symbol xmlns="http://www.w3.org/2000/svg" fill="none" viewBox="0 0 24 24" id="categories"><path stroke="currentColor" stroke-width="1.5" d="M4.25 5c0-.69.56-1.25 1.25-1.25h4c.69 0 1.25.56 1.25 1.25v5.25H5.5c-.69 0-1.25-.56-1.25-1.25V5ZM5.5 20.25c-.69 0-1.25-.56-1.25-1.25v-4c0-.69.56-1.25 1.25-1.25h5.25V19c0 .69-.56 1.25-1.25 1.25h-4ZM14.25 5c0-.69.56-1.25 1.25-1.25h4c.69 0 1.25.56 1.25 1.25v4c0 .69-.56 1.25-1.25 1.25h-5.25V5Zm1.25 15.25c-.69 0-1.25-.56-1.25-1.25v-5.25h5.25c.69 0 1.25.56 1.25 1.25v4c0 .69-.56 1.25-1.25 1.25h-4Z"/></symbol><symbol xmlns="http://www.w3.org/2000/svg" fill="none" viewBox="0 0 24 24" id="check-line"><path d="m10 15.17 9.192-9.191 1.414 1.414L10 17.999l-6.364-6.364 1.414-1.414 4.95 4.95Z" fill="currentColor"/></symbol><symbol xmlns="http://www.w3.org/2000/svg" fill="currentColor" viewBox="0 0 24 24" id="checkbox-circle-fill"><path d="M12 22c5.523 0 10-4.477 10-10S17.523 2 12 2 2 6.477 2 12s4.477 10 10 10Zm5.457-12.543L11 15.914l-4.207-4.207 1.414-1.414L11 13.086l5.043-5.043 1.414 1.414Z"/></symbol><symbol xmlns="http://www.w3.org/2000/svg" viewBox="0 0 24 24" fill="none" id="checkmark"><path d="m4.5 11.5 5 5L19 7" stroke="currentColor" stroke-width="1.5"/></symbol><symbol xmlns="http://www.w3.org/2000/svg" fill="none" viewBox="0 0 24 24" id="checkmark-circle"><path fill-rule="evenodd" clip-rule="evenodd" d="M12 21a9 9 0 1 0 0-18 9 9 0 0 0 0 18Zm0-6 4-5-1-1-4 4-1-2-2 1 3 3h1Z" fill="currentColor"/></symbol><symbol xmlns="http://www.w3.org/2000/svg" fill="none" viewBox="0 0 24 24" id="checkmark-circle-outline"><path d="m9 12.132 2.241 2.368L15.5 10m4.5 2.5a8 8 0 1 1-16 0 8 8 0 0 1 16 0Z" stroke="currentColor" stroke-width="1.5"/></symbol><symbol xmlns="http://www.w3.org/2000/svg" viewBox="0 0 24 24" fill="none" id="chevron-down"><path d="m17 10-5 4-5-4" stroke="currentColor" stroke-width="1.5"/></symbol><symbol xmlns="http://www.w3.org/2000/svg" fill="none" viewBox="0 0 24 24" id="chevron-left"><path d="m14.5 17-5-5 5-5" stroke="currentColor" stroke-width="1.5"/></symbol><symbol xmlns="http://www.w3.org/2000/svg" fill="none" viewBox="0 0 24 24" id="chevron-right"><path d="m9.5 7 5 5-5 5" stroke="currentColor" stroke-width="1.5"/></symbol><symbol xmlns="http://www.w3.org/2000/svg" fill="none" viewBox="0 0 24 24" id="chevron-up"><path d="m12 10 .469-.586L12 9.04l-.469.374L12 10Zm-4.531 4.586 5-4-.938-1.172-5 4 .938 1.172Zm4.062-4 5 4 .938-1.172-5-4-.937 1.172Z" fill="currentColor"/></symbol><symbol xmlns="http://www.w3.org/2000/svg" fill="none" viewBox="0 0 24 24" id="circle-dot"><path fill-rule="evenodd" fill="currentColor" clip-rule="evenodd" d="M22 12c0 5.523-4.477 10-10 10S2 17.523 2 12 6.477 2 12 2s10 4.477 10 10Zm2 0c0 6.627-5.373 12-12 12S0 18.627 0 12 5.373 0 12 0s12 5.373 12 12Zm-12 7a7 7 0 1 0 0-14 7 7 0 0 0 0 14Z"/></symbol><symbol xmlns="http://www.w3.org/2000/svg" fill="none" viewBox="0 0 24 24" id="clock"><path d="M12 7.5V12l3 3m5-3a8 8 0 1 1-16 0 8 8 0 0 1 16 0Z" stroke="currentColor" stroke-width="1.5"/></symbol><symbol xmlns="http://www.w3.org/2000/svg" fill="none" viewBox="0 0 24 24" id="close"><path stroke="currentColor" stroke-width="1.5" d="M18 6 6 18M6 6l12 12"/></symbol><symbol xmlns="http://www.w3.org/2000/svg" fill="currentColor" viewBox="0 0 24 24" id="close-circle-fill"><path d="M12 22C6.477 22 2 17.523 2 12S6.477 2 12 2s10 4.477 10 10-4.477 10-10 10Zm0-11.414L9.172 7.757 7.757 9.172 10.586 12l-2.829 2.828 1.415 1.415L12 13.414l2.828 2.829 1.415-1.415L13.414 12l2.829-2.828-1.415-1.415L12 10.586Z"/></symbol><symbol xmlns="http://www.w3.org/2000/svg" fill="none" viewBox="0 0 24 24" id="currency-line"><path d="M17.005 16.003h2v-12h-10v2h8v10Zm0 2v2.999c0 .553-.45 1-1.007 1H4.012a1.001 1.001 0 0 1-1.007-1l.002-13.998c0-.553.45-1.001 1.007-1.001h2.99v-3a1 1 0 0 1 1-1h12a1 1 0 0 1 1 1v14a1 1 0 0 1-1 1h-3Zm-11.998-10-.002 12h10v-12H5.007Zm1.998 8h4.5a.5.5 0 1 0 0-1h-3a2.5 2.5 0 1 1 0-5h.5v-1h2v1h2v2h-4.5a.5.5 0 0 0 0 1h3a2.5 2.5 0 0 1 0 5h-.5v1h-2v-1h-2v-2Z" fill="currentColor"/></symbol><symbol xmlns="http://www.w3.org/2000/svg" fill="none" viewBox="0 0 24 24" id="delete-bin-6-line"><path fill-rule="evenodd" clip-rule="evenodd" d="M7 4V2h10v2h5v2h-2v15a1 1 0 0 1-1 1H5a1 1 0 0 1-1-1V6H2V4h5ZM6 6v14h12V6H6Zm3 3h2v8H9V9Zm3.999 0h2v8h-2V9Z" fill="currentColor"/></symbol><symbol xmlns="http://www.w3.org/2000/svg" viewBox="0 0 24 24" fill="none" id="delivery-speed"><path d="M0 0h24v24H0z"/><path d="m9.592 19.27.01-.73-.01.73Zm-1.978-2.087-.705-.005.705.005Zm2.005-2.06.007-.729h-.008v.73ZM21.17 17.24l.706.015v-.008l-.706-.007Zm-2.031 2.03.01-.73-.01.73Zm-1.977-2.087-.706-.005.706.005Zm2.004-2.06.007-.729h-.007v.73Zm-2.241 2.847c.39 0 .706-.327.706-.73a.718.718 0 0 0-.706-.73v1.46Zm.004-.73h-.706c0 .403.316.73.706.73v-.73Zm.706-5.126a.718.718 0 0 0-.706-.73.718.718 0 0 0-.706.73h1.412Zm-.47 5.856c.39 0 .706-.327.706-.73a.718.718 0 0 0-.706-.73v1.46Zm3.994-1.46a.72.72 0 0 0-.69.745c.008.403.33.723.72.715l-.03-1.46Zm2.134-1.549.706-.013a.741.741 0 0 0-.011-.115l-.695.128Zm-6.368-7.404h-.706.706Zm3.36 0v.73h.005l-.004-.73Zm1.534.668-.508.507.508-.507Zm.59 1.61-.706-.032a.76.76 0 0 0 .01.16l.695-.128Zm-6.19 2.279c0 .403.316.73.706.73.39 0 .706-.327.706-.73H16.22Zm.706-5.336-.706-.005v.005h.706Zm-1-1.048.003-.73h-.004v.73Zm-9.022 0V5H6.9l.003.73Zm-.71.308-.502-.513.502.513Zm-.292.738h.706v-.003l-.706.003Zm0 9.417.706.003v-.003H5.9Zm.292.737-.502.514.502-.514Zm.71.309-.003.73h.003v-.73Zm.707.73c.39 0 .706-.327.706-.73a.718.718 0 0 0-.706-.73v1.46Zm9.318-6.586a.718.718 0 0 0-.706.73c0 .403.316.73.706.73v-1.46Zm5.876 1.46c.39 0 .706-.327.706-.73a.718.718 0 0 0-.706-.73v1.46ZM.706 6.947a.718.718 0 0 0-.706.73c0 .403.316.73.706.73v-1.46Zm2.946 1.46c.39 0 .706-.327.706-.73a.718.718 0 0 0-.706-.73v1.46Zm-2.005 1.46a.718.718 0 0 0-.706.73c0 .402.316.73.706.73v-1.46Zm1.882 1.46c.39 0 .706-.328.706-.73a.718.718 0 0 0-.706-.73v1.46Zm-1.308 1.46a.718.718 0 0 0-.706.73c0 .402.316.73.706.73v-1.46Zm1.308 1.46c.39 0 .706-.328.706-.73a.718.718 0 0 0-.706-.73v1.46Zm7.389 2.978c-.015.738-.603 1.325-1.317 1.315L9.582 20c1.49.02 2.716-1.205 2.747-2.745l-1.411-.03ZM9.6 18.54c-.713-.01-1.285-.614-1.28-1.352l-1.412-.01c-.01 1.54 1.183 2.8 2.673 2.822l.02-1.46Zm-1.28-1.352c.004-.738.584-1.334 1.298-1.334v-1.46c-1.49 0-2.7 1.244-2.71 2.784l1.411.01Zm1.29-1.334a1.3 1.3 0 0 1 .93.41l1.008-1.022a2.688 2.688 0 0 0-1.923-.848l-.014 1.46Zm.93.41c.245.258.38.606.377.968l1.411.015a2.876 2.876 0 0 0-.78-2.005l-1.008 1.021Zm9.925.96c-.015.739-.603 1.326-1.317 1.316L19.13 20c1.49.02 2.716-1.205 2.747-2.745l-1.411-.03Zm-1.317 1.316c-.713-.01-1.285-.614-1.28-1.352l-1.412-.01c-.01 1.54 1.184 2.8 2.673 2.822l.02-1.46Zm-1.28-1.352c.004-.738.584-1.334 1.298-1.334v-1.46c-1.49 0-2.7 1.244-2.71 2.784l1.411.01Zm1.29-1.334a1.3 1.3 0 0 1 .93.41l1.008-1.022a2.688 2.688 0 0 0-1.923-.848l-.014 1.46Zm.93.41c.245.258.38.606.377.968l1.411.015a2.876 2.876 0 0 0-.78-2.005l-1.008 1.021Zm-3.163.246h-5.303v1.46h5.303v-1.46Zm.71.73v-5.126h-1.412v5.126h1.412Zm-.706.73h.236v-1.46h-.236v1.46Zm4.26 0c1.582-.035 2.838-1.386 2.81-3.022l-1.412.027c.014.83-.624 1.518-1.428 1.535l.03 1.46Zm-4.264-9.683h3.36v-1.46h-3.36v1.46Zm3.365 0a1.38 1.38 0 0 1 1.021.445l1.017-1.013a2.772 2.772 0 0 0-2.047-.892l.01 1.46Zm1.021.445c.267.286.409.674.392 1.071l1.41.064a2.97 2.97 0 0 0-.785-2.148l-1.017 1.013ZM16.22 7.557v4.557h1.412V7.557H16.22Zm1.412 0v-.779H16.22v.779h1.412Zm0-.774a1.803 1.803 0 0 0-.495-1.257l-1.004 1.026a.317.317 0 0 1 .087.221l1.412.01Zm-.495-1.257A1.685 1.685 0 0 0 15.928 5l-.008 1.46c.08 0 .157.034.213.092l1.004-1.026ZM15.924 5h-9.02v1.46h9.02V5ZM6.9 5c-.454.002-.889.19-1.209.525l1.003 1.027a.296.296 0 0 1 .213-.092L6.9 5Zm-1.209.525a1.8 1.8 0 0 0-.496 1.255l1.412-.007c0-.083.03-.162.087-.22L5.691 5.524Zm-.496 1.251v9.417h1.412V6.776H5.195Zm0 9.413c-.002.47.177.921.496 1.255l1.003-1.027a.317.317 0 0 1-.087-.221l-1.412-.007Zm.496 1.255c.32.334.755.523 1.21.525l.006-1.46a.296.296 0 0 1-.213-.092l-1.003 1.027Zm1.212.525h.707v-1.46h-.707v1.46Zm10.025-5.126h5.876v-1.46h-5.876v1.46ZM.706 8.406h2.946v-1.46H.706v1.46Zm.941 2.92h1.882v-1.46H1.647v1.46Zm.574 2.92H3.53v-1.46H2.221v1.46Zm21.768.587-.885-5.126-1.39.256.885 5.127 1.39-.257Z" fill="currentColor"/></symbol><symbol xmlns="http://www.w3.org/2000/svg" fill="none" viewBox="0 0 24 24" id="document-line"><path fill="currentColor" fill-rule="evenodd" d="M18 6v12.992A1 1 0 0 1 17.007 20H.993A.993.993 0 0 1 0 19.009V.99C0 .454.449 0 1.002 0h10.995L18 6Zm-2 1h-5V2H2v16h14V7ZM5 5h3v2H5V5Zm0 4h8v2H5V9Zm0 4h8v2H5v-2Z" clip-rule="evenodd"/></symbol><symbol xmlns="http://www.w3.org/2000/svg" fill="none" viewBox="0 0 24 24" id="download"><path d="M19 17v2.5H5V17m12-6-5 5-5-5m5 5V5" stroke="currentColor" stroke-width="1.5"/></symbol><symbol xmlns="http://www.w3.org/2000/svg" fill="none" viewBox="0 0 24 24" id="earth-americas"><path fill-rule="evenodd" clip-rule="evenodd" d="M9 18.37V15.85l1.62-1.62-2.917-1.667L6.7 11.31v.79l-1.162.21-.954-2.544A7.252 7.252 0 0 0 9 18.37Zm5.7-13.326v5.505L12.852 8.7H10.4l-1.008 1.344.457.456H11.7v1.418L12.421 13h2.396l2.932 2.443A7.25 7.25 0 0 0 14.7 5.044ZM2.85 11.6a8.75 8.75 0 1 1 17.5 0 8.75 8.75 0 0 1-17.5 0Z" fill="currentColor"/></symbol><symbol xmlns="http://www.w3.org/2000/svg" fill="none" viewBox="0 0 24 24" id="earth-line"><path fill-rule="evenodd" clip-rule="evenodd" d="M6.235 6.452a8 8 0 0 0 8.817 12.944c.115-.75-.137-1.47-.24-1.722-.23-.56-.988-1.517-2.253-2.843-.338-.355-.316-.628-.195-1.438l.013-.09c.082-.555.22-.883 2.085-1.179.948-.15 1.197.228 1.542.753l.116.172c.328.48.571.59.938.757.165.075.37.17.645.325.652.373.652.793.652 1.716v.104c0 .392-.038.735-.098 1.034a8.002 8.002 0 0 0-3.105-12.34c-.553.372-1.312.901-1.577 1.264-.135.185-.327 1.132-.95 1.21-.162.02-.38.006-.613-.009-.622-.04-1.472-.095-1.744.644-.173.468-.203 1.74.356 2.4.09.105.107.3.046.52-.08.287-.24.462-.292.498-.096-.056-.288-.28-.419-.43-.313-.366-.705-.82-1.21-.96-.185-.052-.387-.094-.584-.136-.549-.115-1.17-.246-1.315-.554-.106-.226-.105-.537-.105-.865 0-.417 0-.888-.204-1.345a1.276 1.276 0 0 0-.306-.43ZM12 22C6.477 22 2 17.523 2 12S6.478 2 12 2c5.524 0 10 4.477 10 10s-4.476 10-10 10Z" fill="currentColor"/></symbol><symbol xmlns="http://www.w3.org/2000/svg" fill="none" viewBox="0 0 24 24" id="equalizer-line"><path fill-rule="evenodd" clip-rule="evenodd" d="M6.17 18a3.001 3.001 0 0 1 5.66 0H22v2H11.83a3.001 3.001 0 0 1-5.66 0H2v-2h4.17Zm6-7a3.001 3.001 0 0 1 5.66 0H22v2h-4.17a3.001 3.001 0 0 1-5.66 0H2v-2h10.17Zm-6-7a3.001 3.001 0 0 1 5.66 0H22v2H11.83a3.001 3.001 0 0 1-5.66 0H2V4h4.17ZM9 6a1 1 0 1 0 0-2 1 1 0 0 0 0 2Zm6 7a1 1 0 1 0 0-2 1 1 0 0 0 0 2Zm-6 7a1 1 0 1 0 0-2 1 1 0 0 0 0 2Z" fill="#fff" style="fill:#fff;fill-opacity:1"/></symbol><symbol xmlns="http://www.w3.org/2000/svg" fill="none" viewBox="0 0 24 24" id="error"><path fill="currentColor" fill-rule="evenodd" d="M14.477 4.337c-.99-1.783-3.555-1.783-4.545 0L3.33 16.22c-.963 1.733.29 3.863 2.273 3.863h13.202c1.982 0 3.235-2.13 2.272-3.863l-6.6-11.882Zm-1.772 10.645v1.5h-1v-1.5h1Zm-1-5.5v4h1v-4h-1Z" clip-rule="evenodd"/></symbol><symbol xmlns="http://www.w3.org/2000/svg" fill="none" viewBox="0 0 24 24" id="exchange-2-line"><path d="M7 21.5a4.5 4.5 0 1 1 0-9 4.5 4.5 0 0 1 0 9Zm10-10a4.5 4.5 0 1 1 0-9 4.5 4.5 0 0 1 0 9Zm-10 8a2.5 2.5 0 1 0 0-5 2.5 2.5 0 0 0 0 5Zm10-10a2.5 2.5 0 1 0 0-5 2.5 2.5 0 0 0 0 5ZM3 8a5 5 0 0 1 5-5h3v2H8a3 3 0 0 0-3 3v3H3V8Zm18 5h-2v3a3 3 0 0 1-3 3h-3v2h3a5 5 0 0 0 5-5v-3Z" fill="currentColor"/></symbol><symbol xmlns="http://www.w3.org/2000/svg" fill="none" viewBox="0 0 24 25" id="eye-fill"><path fill-rule="evenodd" clip-rule="evenodd" d="M1.18 12.615c.94-5.12 5.427-9 10.82-9 5.392 0 9.878 3.88 10.819 9-.94 5.12-5.427 9-10.82 9-5.392 0-9.878-3.88-10.819-9Zm10.819 5a5 5 0 1 0 0-10 5 5 0 0 0 0 10Zm0-2a3 3 0 1 1 0-6 3 3 0 0 1 0 6Z" fill="currentColor"/></symbol><symbol xmlns="http://www.w3.org/2000/svg" fill="none" viewBox="0 0 24 24" id="facebook"><path fill="currentColor" d="M19 0H5a5 5 0 0 0-5 5v14a5 5 0 0 0 5 5h14a5 5 0 0 0 5-5V5a5 5 0 0 0-5-5Zm-3 7h-1.924C13.461 7 13 7.252 13 7.889V9h3l-.238 3H13v8h-3v-8H8V9h2V7.077C10 5.055 11.064 4 13.461 4H16v3Z"/></symbol><symbol xmlns="http://www.w3.org/2000/svg" fill="none" viewBox="0 0 14 18" id="file"><path d="M5 1v4H1m4-4h8v16H1V5l4-4Z" stroke="currentColor" stroke-width="1.5"/></symbol><symbol xmlns="http://www.w3.org/2000/svg" fill="none" viewBox="0 0 24 24" id="file-copy-line"><path d="M7 6.5h.5V3a.5.5 0 0 1 .5-.5h12a.5.5 0 0 1 .5.5v14a.5.5 0 0 1-.5.5h-3.5V21c0 .273-.223.5-.507.5H4.004A.5.5 0 0 1 3.5 21l.003-14c0-.273.223-.5.507-.5H7Zm-1.997 1h-.5V8L4.5 20v.5h11v-13H5.003ZM8.5 6v.5h8v10h3v-13h-11V6Z" stroke="currentColor"/></symbol><symbol xmlns="http://www.w3.org/2000/svg" fill="none" viewBox="0 0 24 24" id="file-text-line"><path fill-rule="evenodd" clip-rule="evenodd" d="M21 8v12.992A1 1 0 0 1 20.007 22H3.993A.993.993 0 0 1 3 21.008V2.992C3 2.455 3.449 2 4.002 2h10.995L21 8Zm-2 1h-5V4H5v16h14V9ZM8 7h3v2H8V7Zm0 4h8v2H8v-2Zm0 4h8v2H8v-2Z" fill="currentColor"/></symbol><symbol xmlns="http://www.w3.org/2000/svg" viewBox="0 0 24 20" fill="none" id="filter"><path d="M10 12 4 5V4h17v1l-6 7v5l-5 4v-9Z" stroke="currentColor" stroke-width="2" stroke-linecap="square"/></symbol><symbol xmlns="http://www.w3.org/2000/svg" fill="none" viewBox="0 0 24 24" id="fire-colored"><path fill="#F60" d="M18.5 6.5A29 29 0 0 0 14 1.3h-.4a.7.7 0 0 0-.5.4l-3 6-3-2a.8.8 0 0 0-.8 0l-.2.3a14 14 0 0 0-2.7 7.4 8.6 8.6 0 1 0 17.2 0 13 13 0 0 0-2.1-6.9Zm-1 7.7A5.6 5.6 0 0 1 13 19h-.2a.8.8 0 0 1 0-1.4A4.2 4.2 0 0 0 16 14a.8.8 0 1 1 1.5.2Z"/></symbol><symbol xmlns="http://www.w3.org/2000/svg" fill="none" viewBox="0 0 24 25" id="flashlight-fill"><path d="M13 10.192h7l-9 13v-9H4l9-13v9Z" fill="currentColor"/></symbol><symbol xmlns="http://www.w3.org/2000/svg" fill="none" viewBox="0 0 24 24" id="focus-mode"><path d="M4 3.283a1 1 0 0 0-1 1v4h2v-3h3v-2H4Zm16 0h-4v2h3v3h2v-4a1 1 0 0 0-1-1Zm-15 13v3h3v2H4a1 1 0 0 1-1-1v-4h2Zm14 0v3h-3v2h4a1 1 0 0 0 1-1v-4h-2Zm-9-7a1 1 0 0 0-1 1v4a1 1 0 0 0 1 1h4a1 1 0 0 0 1-1v-4a1 1 0 0 0-1-1h-4Z" fill="currentColor"/></symbol><symbol xmlns="http://www.w3.org/2000/svg" fill="none" viewBox="0 0 24 24" id="globe"><path fill="currentColor" fill-rule="evenodd" d="M9 18.37v-2.52l1.62-1.62-2.917-1.667L6.7 11.31v.79l-1.162.21-.954-2.544A7.252 7.252 0 0 0 9 18.37Zm5.7-13.326v5.505L12.852 8.7H10.4l-1.008 1.344.457.456H11.7v1.418L12.421 13h2.396l2.932 2.443A7.25 7.25 0 0 0 14.7 5.044ZM2.85 11.6a8.75 8.75 0 1 1 17.5 0 8.75 8.75 0 0 1-17.5 0Z" clip-rule="evenodd"/></symbol><symbol xmlns="http://www.w3.org/2000/svg" fill="none" viewBox="0 0 24 24" id="grid"><path d="M11.5 5.5v6m0 0v6m0-6h7m-7 0h-7m0-6h14v12h-14v-12Z" stroke="currentColor" stroke-width="1.5"/></symbol><symbol xmlns="http://www.w3.org/2000/svg" fill="none" viewBox="0 0 20 20" id="hamburger"><path fill-rule="evenodd" clip-rule="evenodd" d="M3.334 4.074h13.333v1.481H3.334V4.074Zm0 5.185h13.333v1.481H3.334V9.26Zm0 5.185h13.333v1.482H3.334v-1.482Z" fill="#fff"/></symbol><symbol xmlns="http://www.w3.org/2000/svg" fill="none" viewBox="0 0 16 16" id="heart-bold-filled"><path fill="currentColor" fill-rule="evenodd" d="M8 3.02a3.999 3.999 0 0 1 5.652 5.642L8 14.323 2.347 8.662A4.001 4.001 0 0 1 8 3.019Z" clip-rule="evenodd"/></symbol><symbol xmlns="http://www.w3.org/2000/svg" fill="none" viewBox="0 0 16 16" id="heart-bold-outline"><path fill="currentColor" fill-rule="evenodd" d="M8 3.02a3.999 3.999 0 0 1 5.652 5.642L8 14.323 2.347 8.662A4.001 4.001 0 0 1 8 3.019Zm4.55 1.093a2.665 2.665 0 0 0-3.66-.102L8 4.81l-.89-.798a2.666 2.666 0 0 0-3.79 3.737L8 12.436l4.68-4.687a2.667 2.667 0 0 0-.13-3.636Z" clip-rule="evenodd"/><path fill="currentColor" d="m8 3.02-.167.185.167.15.167-.15L8 3.02Zm5.495.151.177-.176-.177.176Zm.157 5.491.178.177.009-.01-.187-.167ZM8 14.323l-.177.177.177.177.177-.177L8 14.323ZM2.347 8.662l-.187.167.01.01.177-.177Zm.157-5.49-.176-.178.176.177Zm10.047.941v.25h.603l-.426-.426-.177.176Zm-3.66-.102.167.186-.167-.186ZM8 4.81l-.167.186.167.15.167-.15L8 4.81Zm-.891-.798-.167.186.167-.186ZM3.32 7.749l-.19.164.006.006.006.006.177-.176ZM8 12.436l-.178.177.177.177.177-.177L8 12.436Zm4.68-4.687.176.177.006-.006.006-.006-.189-.165Zm-.13-3.636v-.25h-.602l.426.427.177-.177Zm-4.383-.908a3.749 3.749 0 0 1 5.151.143l.354-.353a4.249 4.249 0 0 0-5.839-.162l.334.372Zm5.151.143a3.75 3.75 0 0 1 .148 5.147l.373.334a4.25 4.25 0 0 0-.167-5.834l-.354.353Zm.157 5.137-5.653 5.662.354.353 5.653-5.661-.354-.354Zm-5.3 5.662-5.65-5.662-.354.354 5.652 5.66.354-.352ZM2.534 8.495a3.751 3.751 0 0 1 .148-5.147l-.353-.353a4.251 4.251 0 0 0-.167 5.834l.372-.334Zm.148-5.147a3.75 3.75 0 0 1 5.152-.143l.334-.372a4.25 4.25 0 0 0-5.84.161l.354.354Zm10.047.589a2.915 2.915 0 0 0-4.004-.112l.334.372a2.415 2.415 0 0 1 3.316.093l.354-.353Zm-4.004-.112-.89.799.334.372.89-.799-.334-.372Zm-.557.799-.89-.798-.334.372.89.798.334-.372Zm-.89-.798a2.916 2.916 0 0 0-4.006.112l.353.353a2.416 2.416 0 0 1 3.32-.093l.333-.372Zm-4.006.112a2.916 2.916 0 0 0-.14 3.975l.377-.329a2.416 2.416 0 0 1 .116-3.293l-.353-.353Zm-.129 3.987 4.68 4.688.354-.354-4.68-4.687-.354.353Zm5.034 4.688 4.68-4.687-.354-.353-4.68 4.686.354.354Zm4.692-4.7a2.917 2.917 0 0 0-.14-3.976l-.354.353c.902.904.946 2.343.117 3.295l.377.329Zm-.317-3.55v-.5.5Z"/></symbol><symbol xmlns="http://www.w3.org/2000/svg" fill="none" viewBox="0 0 24 24" id="heart-filled"><path d="M7.75 4C4.912 4 3 6.154 3 8.75c0 1.205.196 2.186.791 3.278.573 1.05 1.505 2.183 2.903 3.726.617.68 1.758 1.82 2.73 2.777.55.543 1.104 1.082 1.66 1.62l.146.14.52.5.52-.501.145-.14c.557-.537 1.11-1.077 1.661-1.62.972-.956 2.113-2.096 2.73-2.776 1.398-1.543 2.33-2.675 2.903-3.726.595-1.092.791-2.073.791-3.278C20.5 6.154 18.588 4 15.75 4c-1.873 0-3.135.982-4 2.076C10.885 4.982 9.623 4 7.75 4Z" fill="currentColor"/></symbol><symbol xmlns="http://www.w3.org/2000/svg" fill="none" viewBox="0 0 24 24" id="heart-outline"><path d="M16.5 15.5C15.3 16.823 12 20 12 20s-3.3-3.177-4.5-4.5C4.7 12.412 4 11.206 4 9c0-2.206 1.6-4 4-4 2 0 3.2 1.324 4 2.647C12.8 6.324 14 5 16 5c2.4 0 4 1.794 4 4s-.7 3.412-3.5 6.5Z" stroke-width="1.5" stroke="currentColor"/></symbol><symbol xmlns="http://www.w3.org/2000/svg" fill="currentColor" viewBox="0 0 24 24" id="history-line"><path d="M12 2c5.523 0 10 4.477 10 10s-4.477 10-10 10S2 17.523 2 12h2a8 8 0 1 0 1.385-4.5H8v2H2v-6h2V6a9.985 9.985 0 0 1 8-4Zm1 5v4.585l3.243 3.243-1.415 1.415L11 12.413V7h2Z"/></symbol><symbol xmlns="http://www.w3.org/2000/svg" fill="none" viewBox="0 0 24 24" id="home-2-line"><path d="M19 21H5a1 1 0 0 1-1-1v-9H1l10.327-9.389a1 1 0 0 1 1.346 0L23 11h-3v9a1 1 0 0 1-1 1ZM6 19h12V9.157l-6-5.454-6 5.454V19Z" fill="currentColor"/></symbol><symbol xmlns="http://www.w3.org/2000/svg" fill="none" viewBox="0 0 24 24" id="info"><path stroke="currentColor" stroke-width="1.5" d="M12 10V8.5m0 3v4m8-3.5a8 8 0 1 1-16 0 8 8 0 0 1 16 0Z"/></symbol><symbol xmlns="http://www.w3.org/2000/svg" fill="none" viewBox="0 0 24 24" id="information-fill"><path fill-rule="evenodd" clip-rule="evenodd" d="M12 22C6.476 22 2 17.523 2 12S6.477 2 12 2s10 4.477 10 10-4.477 10-10 10Zm-1-11v6h2v-6h-2Zm0-4v2h2V7h-2Z" fill="currentColor"/></symbol><symbol xmlns="http://www.w3.org/2000/svg" fill="none" viewBox="0 0 24 24" id="information-line"><path fill="currentColor" fill-rule="evenodd" d="M12 22C6.476 22 2 17.523 2 12S6.477 2 12 2s10 4.477 10 10-4.477 10-10 10Zm-.001-2a8 8 0 1 0 0-16 8 8 0 0 0 0 16Zm-1-13h2v2h-2V7Zm0 4h2v6h-2v-6Z" clip-rule="evenodd"/></symbol><symbol xmlns="http://www.w3.org/2000/svg" fill="none" viewBox="0 0 24 24" id="instagram"><path fill="currentColor" d="M12 2.163c3.204 0 3.584.012 4.85.07 3.252.148 4.771 1.691 4.919 4.919.058 1.265.069 1.645.069 4.849 0 3.205-.012 3.584-.069 4.849-.149 3.225-1.664 4.771-4.919 4.919-1.266.058-1.644.07-4.85.07-3.204 0-3.584-.012-4.849-.07-3.26-.149-4.771-1.699-4.919-4.92-.058-1.265-.07-1.644-.07-4.849 0-3.204.013-3.583.07-4.849.149-3.227 1.664-4.771 4.919-4.919 1.266-.057 1.645-.069 4.849-.069ZM12 0C8.741 0 8.333.014 7.053.072 2.695.272.273 2.69.073 7.052.014 8.333 0 8.741 0 12c0 3.259.014 3.668.072 4.948.2 4.358 2.618 6.78 6.98 6.98C8.333 23.986 8.741 24 12 24c3.259 0 3.668-.014 4.948-.072 4.354-.2 6.782-2.618 6.979-6.98.059-1.28.073-1.689.073-4.948 0-3.259-.014-3.667-.072-4.947-.196-4.354-2.617-6.78-6.979-6.98C15.668.014 15.259 0 12 0Zm0 5.838a6.162 6.162 0 1 0 0 12.324 6.162 6.162 0 0 0 0-12.324ZM12 16a4 4 0 1 1 0-8 4 4 0 0 1 0 8Zm6.406-11.845a1.44 1.44 0 1 0 0 2.881 1.44 1.44 0 0 0 0-2.881Z"/></symbol><symbol xmlns="http://www.w3.org/2000/svg" fill="none" viewBox="0 0 24 24" id="invalid-outline"><path d="M12 15.5V14m0-5.5v4m8-.5a8 8 0 1 1-16 0 8 8 0 0 1 16 0Z" stroke="currentColor" stroke-width="1.5"/></symbol><symbol xmlns="http://www.w3.org/2000/svg" fill="none" viewBox="0 0 24 24" id="leave"><path d="M15.5 14v4.5h-11v-14h11V9M9 11.5h12.5m0 0L19 9m2.5 2.5L19 14" stroke="currentColor" stroke-width="1.5"/></symbol><symbol xmlns="http://www.w3.org/2000/svg" viewBox="0 0 10 10" fill="none" id="leave-arrow-up-right"><path d="M6.209.5a.562.562 0 1 0 0 1.125h1.454l-3.539 3.54a.563.563 0 0 0 .797.797l3.538-3.54v1.453a.562.562 0 1 0 1.125 0V1.062A.562.562 0 0 0 9.021.5H6.21Zm-4.219.563c-.777 0-1.406.629-1.406 1.406v5.625c0 .777.63 1.406 1.406 1.406h5.625c.777 0 1.406-.63 1.406-1.406V6.125a.562.562 0 1 0-1.125 0v1.969a.282.282 0 0 1-.28.281H1.99a.282.282 0 0 1-.281-.281V2.469c0-.155.127-.281.281-.281H3.96a.562.562 0 1 0 0-1.126H1.99Z" fill="currentColor"/></symbol><symbol xmlns="http://www.w3.org/2000/svg" fill="none" viewBox="0 0 24 24" id="linkedin"><path fill="currentColor" d="M19 0H5a5 5 0 0 0-5 5v14a5 5 0 0 0 5 5h14a5 5 0 0 0 5-5V5a5 5 0 0 0-5-5ZM8 19H5V8h3v11ZM6.5 6.732c-.966 0-1.75-.79-1.75-1.764s.784-1.764 1.75-1.764 1.75.79 1.75 1.764-.783 1.764-1.75 1.764ZM20 19h-3v-5.604c0-3.368-4-3.113-4 0V19h-3V8h3v1.765c1.396-2.586 7-2.777 7 2.476V19Z"/></symbol><symbol xmlns="http://www.w3.org/2000/svg" fill="none" viewBox="0 0 24 24" id="list"><path d="M9.5 5.5v4m0 0v4m0-4h9m-9 0h-5m5 4v4m0-4h9m-9 0h-5m0-8h14v12h-14v-12Z" stroke="currentColor" stroke-width="1.5"/></symbol><symbol xmlns="http://www.w3.org/2000/svg" fill="none" viewBox="0 0 24 24" id="location"><path fill-rule="evenodd" clip-rule="evenodd" d="M12 2C8.13 2 5 5.13 5 9c0 4.17 4.42 9.92 6.24 12.11.4.48 1.13.48 1.53 0C14.58 18.92 19 13.17 19 9c0-3.87-3.13-7-7-7Zm0 9.5a2.5 2.5 0 0 1 0-5 2.5 2.5 0 0 1 0 5Z" fill="currentColor"/></symbol><symbol xmlns="http://www.w3.org/2000/svg" fill="none" viewBox="0 0 24 24" id="location-outline"><path stroke="currentColor" stroke-width="1.5" d="M5.5 9.5c0-3.5 2.5-6 6-6s6 2.5 6 6-3 7-6 10c-3-3-6-6.5-6-10Z"/><path stroke="currentColor" stroke-opacity=".8" stroke-width="1.5" d="M13 9.5a1.5 1.5 0 1 1-3 0 1.5 1.5 0 0 1 3 0Z"/></symbol><symbol xmlns="http://www.w3.org/2000/svg" fill="currentColor" viewBox="0 0 24 24" id="logout-circle-r-line"><path d="M12 22C6.477 22 2 17.523 2 12S6.477 2 12 2a9.985 9.985 0 0 1 8 4h-2.71a8 8 0 1 0 .001 12h2.71A9.985 9.985 0 0 1 12 22Zm7-6v-3h-8v-2h8V8l5 4-5 4Z"/></symbol><symbol xmlns="http://www.w3.org/2000/svg" fill="none" viewBox="0 0 24 24" id="map-pin-fill"><path fill="currentColor" fill-rule="evenodd" d="M18.364 17.363 12 23.727l-6.364-6.364a9 9 0 1 1 12.728 0ZM11.999 15a4 4 0 1 0 0-8 4 4 0 0 0 0 8Zm.002-2a2 2 0 1 1 0-4 2 2 0 0 1 0 4Z" clip-rule="evenodd"/></symbol><symbol xmlns="http://www.w3.org/2000/svg" fill="none" viewBox="0 0 17 18" id="negotiated-bid"><path d="M11.37 12.773V5.5h-1.087v5.34h-.067l-3.7-5.34H5.5v7.273h1.097V7.439h.068l3.696 5.334h1.009Z" fill="#757575" style="fill:color(display-p3 .4588 .4588 .4588);fill-opacity:1"/><path fill-rule="evenodd" clip-rule="evenodd" d="M17 9A8.5 8.5 0 1 1 0 9a8.5 8.5 0 0 1 17 0Zm-1.5 0a7 7 0 1 1-14 0 7 7 0 0 1 14 0Z" fill="#757575" style="fill:color(display-p3 .4588 .4588 .4588);fill-opacity:1"/></symbol><symbol xmlns="http://www.w3.org/2000/svg" fill="none" viewBox="0 0 18 18" id="pen"><path d="m11 4 3 3M2 16l1-4L13 2l3 3L6 15l-4 1Z" stroke="currentColor" stroke-width="1.5"/></symbol><symbol xmlns="http://www.w3.org/2000/svg" fill="none" viewBox="0 0 16 16" id="phone-fill"><path fill-rule="evenodd" clip-rule="evenodd" d="M14 10.947v2.357c0 .35-.27.64-.62.665-.291.02-.53.031-.713.031C6.775 14 2 9.225 2 3.333c0-.184.01-.422.03-.713A.667.667 0 0 1 2.697 2h2.357c.172 0 .315.13.332.3a9.267 9.267 0 0 0 .848 3.035.304.304 0 0 1-.098.378L4.697 6.741a8.698 8.698 0 0 0 4.562 4.563l1.027-1.436a.308.308 0 0 1 .382-.1 9.266 9.266 0 0 0 3.033.847c.17.017.3.16.3.332H14Z" fill="#008540"/></symbol><symbol xmlns="http://www.w3.org/2000/svg" fill="currentColor" viewBox="0 0 24 24" id="pin-distance-fill"><path d="M11.39 10.39 7.5 14.277 3.61 10.39a5.5 5.5 0 1 1 7.78 0ZM7.5 8.5a2 2 0 1 0 0-4 2 2 0 0 0 0 4Zm12.89 10.89-3.89 3.888-3.89-3.889a5.5 5.5 0 1 1 7.78 0ZM16.5 17.5a2 2 0 1 0 0-4 2 2 0 0 0 0 4Z"/></symbol><symbol xmlns="http://www.w3.org/2000/svg" fill="none" viewBox="0 0 24 24" id="plant-fill"><path fill="currentColor" fill-rule="evenodd" d="M22 7v2.5a6.5 6.5 0 0 1-6.5 6.5H13v5h-2v-7l.018-1A6.5 6.5 0 0 1 17.5 7H22ZM6 3a7.004 7.004 0 0 1 6.643 4.786A7.477 7.477 0 0 0 10.014 13H9a7 7 0 0 1-7-7V3h4Z" clip-rule="evenodd"/></symbol><symbol xmlns="http://www.w3.org/2000/svg" fill="none" viewBox="0 0 34 29" id="plant-line"><path stroke="currentColor" stroke-linecap="round" stroke-linejoin="round" stroke-width="1.5" d="M33.042 1.173S14.494-1.785 17.42 16.794C36 19.721 33.042 1.173 33.042 1.173ZM28.196 6.02 17.42 16.794" style="stroke-opacity:1"/><path stroke="currentColor" stroke-linecap="round" stroke-linejoin="round" stroke-width="1.5" d="M1.173 1.173S19.72-1.785 16.794 16.794C-1.786 19.721 1.173 1.173 1.173 1.173Zm5.473 5.473 10.148 10.149" style="stroke-opacity:1"/><path stroke="currentColor" stroke-linecap="round" stroke-linejoin="round" stroke-width="1.5" d="M16.317 22.025c-.44 4.074-1.073 5.473-1.073 5.473h3.726s-1.175-2.6-1.436-11.036h-.853a73.06 73.06 0 0 1-.364 5.563Z" style="stroke-opacity:1"/></symbol><symbol xmlns="http://www.w3.org/2000/svg" viewBox="0 0 10 13" fill="none" id="play"><path d="M0 13V0l10 6.5L0 13Z" fill="currentColor"/></symbol><symbol xmlns="http://www.w3.org/2000/svg" fill="none" viewBox="0 0 17 17" id="plug"><path d="m9.25 4.5 3.5-3.5m-.5 6.5 3.5-3.5m-10.5 7.5-4 4m2.5-5.5 2-2c-1.5-2-1-3 0-4l1.5-1.5 7 7-1.5 1.5c-1 1-2 1.5-4 0l-2 2-3-3Z" stroke="currentColor" stroke-width="1.5"/></symbol><symbol xmlns="http://www.w3.org/2000/svg" fill="none" viewBox="0 0 24 24" id="plus"><path stroke="currentColor" stroke-width="1.5" d="M4 11.5h15M11.5 4v15V4Z"/></symbol><symbol xmlns="http://www.w3.org/2000/svg" fill="none" viewBox="0 0 15 15" id="processing"><path d="M1 7.667A6.667 6.667 0 1 0 7.667 1" stroke="currentColor"/></symbol><symbol xmlns="http://www.w3.org/2000/svg" fill="none" viewBox="0 0 24 24" id="profile"><path fill="currentColor" d="M4.5 18.5h-.8v.8h.8v-.8Zm14 0v.8h.8v-.8h-.8Zm-13.3 0c0-1.6.4-2.6.8-3.2.4-.6.9-1 1.3-1.1l-.6-1.4c-.6.3-1.3.8-2 1.7-.6.9-1 2.1-1 4h1.5Zm2.1-4.3.8-.3 1-.3 1.1-.7c.4-.4.6-.8.6-1.4H9.2v.4l-.6.3-1 .3a6 6 0 0 0-1 .3l.7 1.4Zm3.5-2.7c0-1-.4-1.6-.6-2.2a5 5 0 0 1-.4-2H8.2c0 1 .3 1.9.6 2.5.3.7.4 1.1.4 1.7h1.6Zm-1-4.3c0-.8.2-1.4.5-1.7.2-.3.6-.5 1.2-.5V3.5a3 3 0 0 0-2.4 1 4 4 0 0 0-.8 2.8h1.4ZM11.4 5c.6 0 1 .2 1.2.5.3.3.6.9.6 1.8h1.4a4 4 0 0 0-.8-2.8 3 3 0 0 0-2.4-1V5Zm1.8 2.3a5 5 0 0 1-.5 2c-.2.6-.6 1.3-.6 2.2h1.6c0-.6.1-1 .4-1.7.3-.6.6-1.4.6-2.6h-1.6Zm-1 4.2c0 .6.1 1 .5 1.4l1 .7 1.1.3.8.3.6-1.4a6 6 0 0 0-1-.3l-.9-.3-.5-.3-.2-.4h-1.4Zm3.4 2.7c.6.3 1 .6 1.4 1.1.4.6.6 1.5.6 3.2h1.6c0-1.8-.3-3-1-4-.5-.9-1.3-1.3-2-1.7l-.6 1.4Zm2.8 3.6h-14v1.4h14v-1.4Z"/></symbol><symbol xmlns="http://www.w3.org/2000/svg" fill="currentColor" viewBox="0 0 24 24" id="question-answer-fill"><path fill-rule="evenodd" d="M8.001 18h10.237l1.763 1.385V9h1a1 1 0 0 1 1 1v13.5L17.546 20H9.001a1 1 0 0 1-1-1v-1Zm-2.546-2L1 19.5V4a1 1 0 0 1 1-1h15a1 1 0 0 1 1 1v12H5.455Z" clip-rule="evenodd"/></symbol><symbol xmlns="http://www.w3.org/2000/svg" fill="none" viewBox="0 0 12 13" id="question-answer-line"><path fill-rule="evenodd" clip-rule="evenodd" d="M2.728 8 .5 9.75V2a.5.5 0 0 1 .5-.5h7.5A.5.5 0 0 1 9 2v6H2.728Zm-.346-1H8V2.5H1.5v5.192L2.382 7ZM4 9H9.12l.882.692V4.5h.5a.5.5 0 0 1 .5.5v6.75L8.773 10H4.5a.5.5 0 0 1-.5-.5V9Z" fill="currentColor"/></symbol><symbol xmlns="http://www.w3.org/2000/svg" fill="none" viewBox="0 0 23 22" id="question-mark"><path d="M11.5 11.459c0-1.834 1.375-1.375 1.375-2.75 0-.602-.458-1.375-1.375-1.375s-1.375.458-1.833.916M11.5 14.21v-1.375M18.833 11a7.333 7.333 0 1 1-14.666 0 7.333 7.333 0 0 1 14.666 0Z" stroke="currentColor" stroke-width="1.5"/></symbol><symbol xmlns="http://www.w3.org/2000/svg" fill="none" viewBox="0 0 19 19" id="remove"><path d="m6.5 12.5 3-3m0 0 3-3m-3 3-3-3m3 3 3 3m5-3a8 8 0 1 1-16 0 8 8 0 0 1 16 0Z" stroke="#212121" stroke-opacity=".45" stroke-width="1.5"/></symbol><symbol xmlns="http://www.w3.org/2000/svg" fill="none" viewBox="0 0 24 24" id="repeat"><path d="M4.885 16A8 8 0 1 0 3.5 11.5v1m0 0L6 10m-2.5 2.5L1 10" stroke="currentColor" stroke-width="1.5"/></symbol><symbol xmlns="http://www.w3.org/2000/svg" viewBox="0 0 6 7" id="reservation-price"><path d="M5.344 3.184.656 5.11v-.83L4.37 2.797.656 1.336V.5l4.688 1.904v.78Zm-.01 3.045H.661v-.775h4.673v.775Z"/></symbol><symbol xmlns="http://www.w3.org/2000/svg" fill="none" viewBox="0 0 24 24" id="reserve-price"><path d="m19.5 10.987-15 6.166v-2.66l11.88-4.739L4.5 5.074V2.4l15 6.091v2.496Zm-.03 9.746H4.514v-2.48H19.47v2.48Z" fill="currentColor"/></symbol><symbol xmlns="http://www.w3.org/2000/svg" fill="none" viewBox="0 0 24 24" id="search"><path d="M13.036 13.036 19 19m-4.5-9.5a5 5 0 1 1-10 0 5 5 0 0 1 10 0Z" stroke="currentColor" stroke-width="1.5"/></symbol><symbol xmlns="http://www.w3.org/2000/svg" fill="none" viewBox="0 0 24 24" id="send-plane-fill"><path fill-rule="evenodd" clip-rule="evenodd" d="M1.946 9.315c-.522-.174-.527-.455.01-.634l19.087-6.362c.53-.176.832.12.684.638l-5.454 19.086c-.15.529-.455.547-.679.045L12 14l6-8-8 6-8.054-2.685Z" fill="currentColor"/></symbol><symbol xmlns="http://www.w3.org/2000/svg" fill="currentColor" viewBox="0 0 24 24" id="settings-4-line"><path d="M2 12c0-.865.11-1.704.316-2.504A3 3 0 0 0 4.99 4.867a9.99 9.99 0 0 1 4.335-2.506 3 3 0 0 0 5.348 0 9.99 9.99 0 0 1 4.335 2.506 3 3 0 0 0 2.675 4.63c.206.8.316 1.638.316 2.503 0 .864-.11 1.703-.316 2.503a3 3 0 0 0-2.675 4.63 9.99 9.99 0 0 1-4.335 2.505 3 3 0 0 0-5.348 0 9.99 9.99 0 0 1-4.335-2.505 3 3 0 0 0-2.675-4.63C2.11 13.703 2 12.864 2 12Zm4.804 3c.63 1.091.81 2.346.564 3.524.408.29.842.541 1.297.75A4.993 4.993 0 0 1 12 18c1.26 0 2.438.471 3.335 1.274.455-.209.889-.46 1.297-.75A4.993 4.993 0 0 1 17.196 15a4.993 4.993 0 0 1 2.77-2.25 8.142 8.142 0 0 0 0-1.5A4.993 4.993 0 0 1 17.195 9a4.993 4.993 0 0 1-.564-3.524 7.991 7.991 0 0 0-1.297-.75A4.993 4.993 0 0 1 12 6a4.993 4.993 0 0 1-3.335-1.274 7.99 7.99 0 0 0-1.297.75A4.993 4.993 0 0 1 6.804 9a4.993 4.993 0 0 1-2.77 2.25 8.125 8.125 0 0 0 0 1.5A4.993 4.993 0 0 1 6.805 15ZM12 15a3 3 0 1 1 0-6 3 3 0 0 1 0 6Zm0-2a1 1 0 1 0 0-2 1 1 0 0 0 0 2Z"/></symbol><symbol xmlns="http://www.w3.org/2000/svg" fill="none" viewBox="0 0 24 25" id="share"><path fill="currentColor" d="M19 8h.75v-.75H19V8Zm0 12v.75h.75V20H19ZM5 20h-.75v.75H5V20ZM5 8v-.75h-.75V8H5Zm7-6 .53-.53L12 .94l-.53.53L12 2Zm6.25 6v12h1.5V8h-1.5ZM19 19.25H5v1.5h14v-1.5ZM5.75 20V8h-1.5v12h1.5ZM5 8.75h3v-1.5H5v1.5Zm11 0h3v-1.5h-3v1.5ZM9.03 6.03l3.5-3.5-1.06-1.06-3.5 3.5 1.06 1.06Zm2.44-3.5 3.5 3.5 1.06-1.06-3.5-3.5-1.06 1.06ZM11.25 2v9.5h1.5V2h-1.5Z"/></symbol><symbol xmlns="http://www.w3.org/2000/svg" viewBox="0 0 24 19" fill="none" id="share-email"><path fill-rule="evenodd" clip-rule="evenodd" d="M21.5 0h-19A2.382 2.382 0 0 0 .125 2.375v14.25A2.382 2.382 0 0 0 2.5 19h19a2.382 2.382 0 0 0 2.375-2.375V2.375A2.382 2.382 0 0 0 21.5 0Zm-.475 5.047-7.766 4.857a2.352 2.352 0 0 1-2.518 0L2.975 5.047a1.008 1.008 0 1 1 1.069-1.71L12 8.313l7.956-4.976a1.008 1.008 0 1 1 1.069 1.71Z" fill="currentColor"/></symbol><symbol xmlns="http://www.w3.org/2000/svg" viewBox="0 0 24 25" fill="none" id="share-facebook"><path fill-rule="evenodd" clip-rule="evenodd" d="M1.316 23.182C2.212 24.05 3.25 24.5 4.51 24.5h8.485v-9.506h-3.5v-3.503h3.5V8.883c0-1.486.42-2.663 1.288-3.504.84-.842 1.989-1.262 3.389-1.262.895 0 1.82.055 2.828.14v3.224l-2.072.029c-.7 0-1.204.14-1.484.448-.308.309-.449.729-.449 1.29v2.243h3.64l-.475 3.503h-3.165V24.5h2.997c1.233 0 2.297-.45 3.193-1.318.868-.87 1.316-1.935 1.316-3.196v-15c0-1.233-.448-2.299-1.316-3.168C21.788.948 20.75.5 19.49.5H4.509C3.25.5 2.212.948 1.316 1.818.448 2.688 0 3.753 0 4.985v15c0 1.262.448 2.328 1.316 3.197Z" fill="currentColor"/></symbol><symbol xmlns="http://www.w3.org/2000/svg" fill="none" viewBox="0 0 20 20" id="share-forward-line"><path d="M10.833 11.666H9.167a7.5 7.5 0 0 0-6.64 4.009 8.333 8.333 0 0 1 8.307-9.008V2.082l8.75 7.083-8.75 7.084v-4.584ZM9.167 10H12.5v2.756l4.434-3.59-4.434-3.59v2.757h-1.667a6.652 6.652 0 0 0-5.047 2.31A9.158 9.158 0 0 1 9.166 10Z" fill="currentColor"/></symbol><symbol xmlns="http://www.w3.org/2000/svg" fill="none" viewBox="0 0 24 25" id="share-linkedin"><path fill-rule="evenodd" clip-rule="evenodd" d="M1.316 23.182C2.212 24.05 3.25 24.5 4.51 24.5h14.982c1.26 0 2.297-.45 3.193-1.318.868-.87 1.316-1.935 1.316-3.196v-15c0-1.233-.448-2.299-1.316-3.168C21.788.948 20.75.5 19.49.5H4.509C3.25.5 2.212.948 1.316 1.818.448 2.688 0 3.753 0 4.985v15c0 1.262.448 2.328 1.316 3.197ZM4.032 5.07c.392-.364.896-.533 1.485-.533.616 0 1.092.169 1.456.533.364.365.56.814.56 1.346 0 .533-.168.981-.56 1.346-.364.364-.868.532-1.485.532-.616 0-1.091-.168-1.456-.532a1.842 1.842 0 0 1-.56-1.346c0-.532.196-.98.56-1.346Zm-.335 4.682h3.612v10.822H3.697V9.752Zm5.6 0h3.612v1.57h-.027c.756-1.205 1.848-1.822 3.249-1.822 1.26 0 2.268.42 3.024 1.234.756.813 1.148 2.018 1.148 3.645v6.195h-3.612v-5.803c0-1.627-.616-2.44-1.82-2.44-.448 0-.841.14-1.15.393-.307.252-.56.56-.7.925-.083.169-.112.477-.112.87v6.055H9.298c.027-6.533.027-10.149 0-10.822Z" fill="currentColor"/></symbol><symbol xmlns="http://www.w3.org/2000/svg" viewBox="0 0 24 25" fill="none" id="share-twitter"><path fill-rule="evenodd" clip-rule="evenodd" d="M1.316 23.182C2.213 24.05 3.25 24.5 4.51 24.5h14.983c1.26 0 2.296-.45 3.192-1.318.868-.87 1.316-1.935 1.316-3.196v-15c0-1.233-.448-2.299-1.316-3.168C21.788.948 20.752.5 19.492.5H4.51C3.25.5 2.213.948 1.316 1.818.45 2.688 0 3.753 0 4.987v14.999c0 1.261.45 2.327 1.316 3.196ZM4.79 18.08c1.512 0 2.856-.477 4.088-1.403-.728-.027-1.345-.224-1.905-.672a3.273 3.273 0 0 1-1.175-1.626c.28.056.475.083.615.083.225 0 .505-.056.785-.14a3.12 3.12 0 0 1-1.904-1.121 3.114 3.114 0 0 1-.785-2.103v-.028c.56.28 1.064.392 1.568.42-.952-.644-1.428-1.542-1.428-2.747 0-.589.14-1.122.449-1.654a9.737 9.737 0 0 0 2.996 2.44 9.74 9.74 0 0 0 3.78 1.009 2.87 2.87 0 0 1-.084-.757c0-.898.336-1.683.981-2.327.615-.646 1.4-.955 2.296-.955.98 0 1.764.338 2.409 1.038.7-.14 1.4-.42 2.072-.813-.252.813-.728 1.43-1.428 1.823a6.866 6.866 0 0 0 1.876-.505 6.736 6.736 0 0 1-1.653 1.683c.029.112.029.252.029.42 0 .869-.14 1.765-.392 2.635-.252.87-.645 1.71-1.15 2.523a9.856 9.856 0 0 1-1.903 2.13 8.435 8.435 0 0 1-2.604 1.487 9.807 9.807 0 0 1-3.277.561c-1.82 0-3.5-.477-5.041-1.458.252.028.504.057.785.057Z" fill="currentColor"/></symbol><symbol xmlns="http://www.w3.org/2000/svg" fill="currentColor" viewBox="0 0 24 24" id="shield-checkmark-fill"><path d="m12 1 8.217 1.826a1 1 0 0 1 .783.976v9.987a6 6 0 0 1-2.672 4.992L12 23l-6.328-4.219A5.998 5.998 0 0 1 3 13.79V3.802a1 1 0 0 1 .783-.976L12 1Zm4.452 7.222-4.95 4.949-2.828-2.828-1.414 1.414L11.503 16l6.364-6.364-1.415-1.414Z"/></symbol><symbol xmlns="http://www.w3.org/2000/svg" fill="none" viewBox="0 0 24 24" id="shield-outline"><path stroke="currentColor" stroke-linecap="round" stroke-linejoin="round" stroke-width="1.5" d="M12 21s7-3.6 7-9V5.7L12 3 5 5.7V12c0 5.4 7 9 7 9Z"/><path stroke="currentColor" stroke-width="1.5" d="M9 11.632 11.241 14 15.5 9.5"/></symbol><symbol xmlns="http://www.w3.org/2000/svg" viewBox="0 0 24 24" id="snapchat"><path fill="currentColor" d="M19 0H5a5 5 0 0 0-5 5v14a5 5 0 0 0 5 5h14a5 5 0 0 0 5-5V5a5 5 0 0 0-5-5zm-1.141 17.115c-.065.087-.117.457-.203.749-.098.337-.407.299-.75.232-.499-.097-.945-.125-1.464-.039-.898.149-1.83 1.477-3.393 1.477-1.682 0-2.557-1.321-3.49-1.477-.951-.158-1.497.096-1.826.096a.371.371 0 0 1-.388-.282c-.084-.287-.138-.664-.204-.754-.646-.1-2.103-.354-2.141-1.005a.333.333 0 0 1 .277-.346c2.139-.352 3.501-2.765 3.279-3.287-.158-.372-.84-.505-1.127-.619-.74-.293-.843-.63-.799-.86.061-.32.451-.535.778-.535.314 0 .869.42 1.301.181-.065-1.123-.223-2.728.177-3.624.763-1.71 2.434-2.555 4.105-2.555 1.683 0 3.366.858 4.123 2.554.399.895.242 2.493.178 3.625.408.225.913-.191 1.265-.191.345 0 .814.233.822.623.006.305-.266.568-.809.782-.292.115-.969.248-1.127.619-.227.535 1.177 2.941 3.279 3.287a.33.33 0 0 1 .277.346c-.036.65-1.5.903-2.14 1.003z"/></symbol><symbol xmlns="http://www.w3.org/2000/svg" fill="none" viewBox="0 0 20 20" id="sort-desc"><path d="M16.667 3.333v10h2.5L15.833 17.5 12.5 13.334H15v-10h1.667ZM10 15v1.667H2.5V15H10Zm1.667-5.833v1.667H2.5V9.167h9.167Zm0-5.833V5H2.5V3.333h9.167Z" fill="#fff"/></symbol><symbol xmlns="http://www.w3.org/2000/svg" fill="none" viewBox="0 0 24 25" id="sparkling-2-fill"><path d="m17 2.015 1.32 2.473 2.472 1.319-2.473 1.319-1.318 2.473-1.32-2.473-2.472-1.319 2.473-1.319L17 2.015ZM8 5.14l2.667 5 5 2.667-5 2.667-2.666 5-2.667-5-5-2.667 5-2.667 2.667-5Zm11.667 12-1.666-3.125-1.667 3.125-3.125 1.667 3.125 1.667 1.667 3.125 1.666-3.125 3.125-1.667-3.125-1.667Z" fill="currentColor"/></symbol><symbol xmlns="http://www.w3.org/2000/svg" fill="none" viewBox="0 0 24 24" id="stack"><path d="M20.625 15.853 12 20.878l-8.625-5.025a.75.75 0 0 0-.75 1.294l9 5.25a.731.731 0 0 0 .75 0l9-5.25a.752.752 0 0 0 .12-1.281.749.749 0 0 0-.87-.013Z" fill="currentColor"/><path d="M20.625 11.353 12 16.378l-8.625-5.025a.75.75 0 0 0-.75 1.294l9 5.25a.731.731 0 0 0 .75 0l9-5.25a.752.752 0 0 0 .12-1.281.749.749 0 0 0-.87-.013Z" fill="currentColor"/><path d="m2.625 8.147 9 5.25a.731.731 0 0 0 .75 0l9-5.25a.75.75 0 0 0 0-1.294l-9-5.25a.722.722 0 0 0-.75 0l-9 5.25a.75.75 0 0 0 0 1.294Z" fill="currentColor"/></symbol><symbol xmlns="http://www.w3.org/2000/svg" fill="none" viewBox="0 0 20 22" id="stack-outline"><path d="M1.378 14.852a.75.75 0 1 0-.756 1.296l.756-1.296ZM10 20.75l-.378.648a.75.75 0 0 0 .756 0L10 20.75Zm9.378-4.602a.75.75 0 1 0-.756-1.296l.756 1.296Zm-18-5.796a.75.75 0 1 0-.756 1.296l.756-1.296ZM10 16.25l-.378.648a.75.75 0 0 0 .756 0L10 16.25Zm9.378-4.602a.75.75 0 1 0-.756-1.296l.756 1.296ZM1 6.5l-.378-.648a.75.75 0 0 0 0 1.296L1 6.5Zm9 5.25-.378.648a.75.75 0 0 0 .756 0L10 11.75Zm9-5.25.378.648a.75.75 0 0 0 0-1.296L19 6.5Zm-9-5.25.378-.648a.75.75 0 0 0-.756 0L10 1.25ZM.622 16.148l9 5.25.756-1.296-9-5.25-.756 1.296Zm9.756 5.25 9-5.25-.756-1.296-9 5.25.756 1.296Zm-9.756-9.75 9 5.25.756-1.296-9-5.25-.756 1.296Zm9.756 5.25 9-5.25-.756-1.296-9 5.25.756 1.296ZM.622 7.148l9 5.25.756-1.296-9-5.25-.756 1.296Zm9.756 5.25 9-5.25-.756-1.296-9 5.25.756 1.296Zm9-6.546-9-5.25-.756 1.296 9 5.25.756-1.296ZM9.622.602l-9 5.25.756 1.296 9-5.25L9.622.602Z" fill="currentColor"/></symbol><symbol xmlns="http://www.w3.org/2000/svg" viewBox="0 0 16 15" fill="none" id="star"><path d="m8 2.253 1.516 3.913 4.19.233-3.252 2.652 1.073 4.056L8 10.834l-3.527 2.274 1.073-4.056-3.252-2.652 4.19-.233L8 2.253Z" stroke="currentColor" stroke-width="1.5"/></symbol><symbol xmlns="http://www.w3.org/2000/svg" fill="none" viewBox="0 0 24 25" id="star-fill"><path d="M12 18.312 4.947 22.26l1.575-7.928L.587 8.844l8.027-.952L12 .552l3.386 7.34 8.027.952-5.935 5.488 1.575 7.928L12 18.312Z" fill="currentColor"/></symbol><symbol xmlns="http://www.w3.org/2000/svg" fill="none" viewBox="0 0 24 24" id="stop"><path fill-rule="evenodd" clip-rule="evenodd" d="M12 21a9 9 0 1 0 0-18 9 9 0 0 0 0 18Zm-4-9.75a.75.75 0 0 0 0 1.5h8a.75.75 0 0 0 0-1.5H8Z" fill="currentColor" fill-opacity=".8"/></symbol><symbol xmlns="http://www.w3.org/2000/svg" fill="none" viewBox="0 0 24 24" id="stop-outline"><path d="M7 11.4h9m3.5.1a8 8 0 1 1-16 0 8 8 0 0 1 16 0Z" stroke="currentColor" stroke-width="1.5"/></symbol><symbol xmlns="http://www.w3.org/2000/svg" fill="none" viewBox="0 0 24 25" id="time-line"><path fill-rule="evenodd" clip-rule="evenodd" d="M12 22.615c-5.523 0-10-4.477-10-10s4.477-10 10-10 10 4.477 10 10-4.477 10-10 10Zm-.001-2a8 8 0 1 0 0-16 8 8 0 0 0 0 16Zm1-8h4v2h-6v-7h2v5Z" fill="currentColor"/></symbol><symbol xmlns="http://www.w3.org/2000/svg" fill="none" viewBox="0 0 24 24" id="tour-3d"><path fill="currentColor" fill-rule="evenodd" d="M7.57 4.482C8.528 2.566 10.037 1 12 1c1.389 0 2.559.798 3.439 1.904.789.991 1.415 2.308 1.85 3.807.512.15 1 .32 1.46.51 1.83.755 3.366 1.897 3.978 3.403a1 1 0 0 1-1.854.752c-.315-.776-1.26-1.634-2.888-2.308C16.395 8.411 14.309 8 12 8c-1.302 0-2.53.13-3.639.361A17.934 17.934 0 0 0 8 12c0 1.302.13 2.53.361 3.639C9.47 15.869 10.698 16 12 16c1.636 0 3.157-.206 4.468-.559l-1.713-.835a1 1 0 1 1 .877-1.798l3.814 1.86a1 1 0 0 1 .46 1.337l-1.86 3.814a1 1 0 1 1-1.797-.876l.77-1.579c-1.512.41-3.222.636-5.019.636-1.04 0-2.053-.076-3.014-.22.117.299.241.58.373.844C10.211 20.327 11.202 21 12 21c.205 0 .413-.04.624-.127a1 1 0 1 1 .752 1.854A3.647 3.647 0 0 1 12 23c-1.963 0-3.472-1.566-4.43-3.482-.335-.67-.624-1.42-.859-2.23a13.215 13.215 0 0 1-2.23-.858C2.567 15.472 1 13.963 1 12c0-1.963 1.566-3.472 3.482-4.43.67-.335 1.42-.624 2.23-.859.234-.81.523-1.559.858-2.23Zm6.304-.333c.422.53.812 1.23 1.14 2.07A20.521 20.521 0 0 0 12 6c-1.04 0-2.053.076-3.014.22.117-.299.241-.58.373-.844C10.211 3.673 11.202 3 12 3c.563 0 1.214.32 1.874 1.15ZM5.376 9.36c.264-.132.545-.256.843-.373A20.46 20.46 0 0 0 6 12c0 1.04.076 2.053.22 3.014a10.08 10.08 0 0 1-.844-.373C3.673 13.789 3 12.798 3 12s.673-1.79 2.376-2.641Z" clip-rule="evenodd"/></symbol><symbol xmlns="http://www.w3.org/2000/svg" fill="none" viewBox="0 0 24 24" id="transfer"><path d="m16 11 3.5 3.5m0 0L16 18m3.5-3.5H9M7 11 3.5 7.5m0 0L7 4M3.5 7.5H14" stroke="currentColor" stroke-width="1.5"/></symbol><symbol xmlns="http://www.w3.org/2000/svg" fill="none" viewBox="0 0 24 24" id="trend"><path fill-rule="evenodd" clip-rule="evenodd" d="M15 5.75h6.25V12h-1.5V8.31l-6.25 6.25-4-4-6.47 6.47-1.06-1.06L9.5 8.44l4 4 5.19-5.19H15v-1.5Z" fill="currentColor"/></symbol><symbol xmlns="http://www.w3.org/2000/svg" fill="none" viewBox="0 0 24 24" id="truck-outline"><path stroke="currentColor" stroke-linecap="round" stroke-linejoin="round" stroke-width="1.5" d="M19.181 16.826a2.19 2.19 0 1 1-2.19-2.174 2.182 2.182 0 0 1 2.19 2.174Zm0 0a2.328 2.328 0 0 0 2.319-2.341l-.537-2.926h-6.419v5.267m0 0h-5.8m5.8 0h.256m-.257-9.949h3.671a2.275 2.275 0 0 1 2.319 2.341l.429 2.341m-6.42 0V6.077A1.085 1.085 0 0 0 13.45 5H3.595A1.085 1.085 0 0 0 2.5 6.075v9.675a1.085 1.085 0 0 0 1.095 1.075h.772m4.38.001a2.19 2.19 0 1 1-2.19-2.174 2.182 2.182 0 0 1 2.19 2.174Z"/></symbol><symbol xmlns="http://www.w3.org/2000/svg" fill="currentColor" viewBox="0 0 24 24" id="trustpilot-star"><path d="m12 16.726 4.128-1.047L17.853 21 12 16.726Zm9.5-6.877h-7.266L12 3 9.766 9.85H2.5l5.881 4.244-2.234 6.85 5.881-4.246 3.62-2.604L21.5 9.85Z"/></symbol><symbol xmlns="http://www.w3.org/2000/svg" fill="none" viewBox="0 0 24 24" id="user-add-fill"><path fill-rule="evenodd" clip-rule="evenodd" d="M13.548 13.99V21H4.5a7.238 7.238 0 0 1 9.048-7.01Zm-1.81-1.133c-3 0-5.429-2.43-5.429-5.429 0-3 2.43-5.428 5.429-5.428s5.428 2.429 5.428 5.428c0 3-2.429 5.429-5.428 5.429Zm5.429 3.619V13.76h1.81v2.715h2.713v1.81h-2.714v2.713h-1.81v-2.714h-2.714v-1.81h2.715Z" fill="currentColor"/></symbol><symbol xmlns="http://www.w3.org/2000/svg" fill="currentColor" viewBox="0 0 24 24" id="user-add-line"><path d="M14 14.252v2.09A6 6 0 0 0 6 22H4a8 8 0 0 1 10-7.749ZM12 13c-3.315 0-6-2.685-6-6s2.685-6 6-6 6 2.685 6 6-2.685 6-6 6Zm0-2c2.21 0 4-1.79 4-4s-1.79-4-4-4-4 1.79-4 4 1.79 4 4 4Zm6 6v-3h2v3h3v2h-3v3h-2v-3h-3v-2h3Z"/></symbol><symbol xmlns="http://www.w3.org/2000/svg" fill="none" viewBox="0 0 24 24" id="user-fill"><path fill-rule="evenodd" clip-rule="evenodd" d="M5 21a7.238 7.238 0 1 1 14.476 0H5Zm7.237-8.143c-3 0-5.428-2.43-5.428-5.429 0-3 2.429-5.428 5.428-5.428 3 0 5.429 2.429 5.429 5.428 0 3-2.43 5.429-5.429 5.429Z" fill="currentColor"/></symbol><symbol xmlns="http://www.w3.org/2000/svg" fill="none" viewBox="0 0 24 24" id="user-line"><path fill="currentColor" d="M4 22a8 8 0 0 1 16 0h-2a6 6 0 0 0-12 0H4Zm8-9c-3.315 0-6-2.685-6-6s2.685-6 6-6c3.316 0 6 2.685 6 6s-2.684 6-6 6Zm0-2c2.21 0 4-1.79 4-4s-1.79-4-4-4-4 1.79-4 4 1.79 4 4 4Z"/></symbol><symbol xmlns="http://www.w3.org/2000/svg" fill="none" viewBox="0 0 24 24" id="wand-alt-line"><path d="m10.188 4.501-1.326.496a.27.27 0 0 0 0 .506L10.188 6l.496 1.326a.27.27 0 0 0 .506 0l.496-1.326 1.325-.496a.27.27 0 0 0 0-.506l-1.325-.496-.496-1.325a.27.27 0 0 0-.506 0L10.188 4.5ZM3.556 16.903a1.691 1.691 0 0 0 0 2.387l1.217 1.217a1.691 1.691 0 0 0 2.388 0l13.407-13.41a1.691 1.691 0 0 0 0-2.388L19.35 3.496a1.691 1.691 0 0 0-2.387 0L3.556 16.903ZM18.975 5.904l-3.692 3.692-.82-.819 3.693-3.692.819.82ZM2.199 7.121a.407.407 0 0 0-.263.38c0 .168.105.32.263.38l1.987.745.745 1.986a.407.407 0 0 0 .76 0l.745-1.986 1.987-.746a.407.407 0 0 0 .264-.38.407.407 0 0 0-.264-.38l-1.987-.745-.745-1.986a.407.407 0 0 0-.38-.264.407.407 0 0 0-.38.264l-.745 1.986-1.987.746Zm12.377 9.001a.407.407 0 0 0 0 .76l1.987.745.745 1.987c.06.158.211.264.38.264s.32-.106.38-.264l.745-1.987 1.987-.745a.407.407 0 0 0 0-.76l-1.987-.745-.745-1.987a.407.407 0 0 0-.38-.264.407.407 0 0 0-.38.264l-.745 1.987-1.987.745Z" fill="currentColor"/></symbol><symbol xmlns="http://www.w3.org/2000/svg" viewBox="0 0 20 20" fill="none" id="warning"><path fill-rule="evenodd" clip-rule="evenodd" d="M10 18.333a8.333 8.333 0 1 1 0-16.667 8.333 8.333 0 1 1 0 16.667Zm-.001-1.667a6.667 6.667 0 1 0 0-13.333 6.667 6.667 0 0 0 0 13.333ZM9.166 12.5h1.667v1.667H9.166v-1.667Zm0-6.666h1.667v5H9.166v-5Z" fill="#111928"/></symbol><symbol xmlns="http://www.w3.org/2000/svg" fill="none" viewBox="0 0 24 24" id="zap"><path stroke="currentColor" stroke-linecap="round" stroke-linejoin="round" stroke-width="1.5" d="M13.231.923 2.154 14.215h9.97l-1.108 8.862L22.093 9.784h-9.97L13.232.923Z"/></symbol><symbol xmlns="http://www.w3.org/2000/svg" viewBox="0 0 24 24" id="zendesk-chat"><path d="m14 18 4 4v-4h-4ZM7 6a5 5 0 0 0 0 10h10a5 5 0 0 0 0-10Z"/></symbol><symbol xmlns="http://www.w3.org/2000/svg" fill="none" viewBox="0 0 24 24" id="zoom-plus"><path fill-rule="evenodd" clip-rule="evenodd" d="M5.25 9.5a4.25 4.25 0 1 1 8.5 0 4.25 4.25 0 0 1-8.5 0ZM9.5 3.75a5.75 5.75 0 1 0 3.501 10.312l5.469 5.468 1.06-1.06L14.062 13A5.75 5.75 0 0 0 9.5 3.75ZM8.75 7v1.694H7v1.5h1.75V12h1.5v-1.806H12v-1.5h-1.75V7h-1.5Z" fill="currentColor"/></symbol></svg>